<?xml version="1.0" encoding="UTF-8" standalone="no"?>
<!-- Created with Inkscape (http://www.inkscape.org/) -->
<svg
   xmlns:svg="http://www.w3.org/2000/svg"
   xmlns="http://www.w3.org/2000/svg"
   version="1.0"
   width="960"
   height="960"
   id="svg3602">
  <defs
     id="defs3604" />
  <g
     transform="translate(-315.342,393.0283)"
     id="layer1">
    <path
       d="M 315.342,86.978615 C 315.342,-178.11392 530.2465,-393.02832 795.342,-393.02832 C 1060.4375,-393.02832 1275.342,-178.11392 1275.342,86.978615 C 1275.342,352.05728 1060.4375,566.97168 795.342,566.97168 C 530.2465,566.97168 315.342,352.05728 315.342,86.978615 z "
       style="fill:#ee1c23;fill-rule:nonzero;stroke:none"
       id="path3619" />
    <path
       d="M 795.342,442.88552 C 991.9096,442.88552 1151.2633,283.53043 1151.2633,86.978615 C 1151.2633,-109.58707 991.9096,-268.94216 795.342,-268.94216 C 598.7744,-268.94216 439.42071,-109.58707 439.42071,86.978615 C 439.42071,283.53043 598.7744,442.88552 795.342,442.88552"
       style="fill:white;fill-rule:nonzero;stroke:none"
       id="path226" />
    <path
       d="M 891.62453,375.07986 L 891.45834,279.48067 L 880.66949,279.48067 L 880.66949,262.53273 L 891.45834,262.53273 L 891.45834,229.94052 L 913.03604,219.69131 L 913.06374,262.53273 L 926.40092,262.53273 L 926.40092,279.48067 L 913.06374,279.48067 L 913.21608,375.07986 L 891.62453,375.07986"
       style="fill:black;fill-rule:nonzero;stroke:none"
       id="path228" />
    <path
       d="M 820.42366,346.01038 C 820.42366,353.41644 825.07713,357.64649 831.4341,357.64649 C 837.77722,357.64649 841.59972,353.41644 841.59972,346.42645 L 841.59972,312.53056 C 841.59972,306.60848 837.36174,301.74046 831.4341,301.74046 C 824.02456,301.74046 821.69782,307.4545 820.42366,309.99253 L 799.89852,309.99253 L 799.89852,228.69231 L 856.59885,228.69231 L 856.59885,249.0243 L 820.42366,249.0243 L 820.42366,289.67441 C 824.44004,285.86042 830.79702,282.68442 838.41431,282.68442 C 853.02565,282.68442 863.19127,292.0044 863.19127,309.35455 L 863.19127,346.85639 C 863.19127,366.96648 848.16444,379.24057 831.00476,379.24057 C 813.85894,379.24057 798.8321,366.23142 798.8321,346.12134 L 820.42366,346.01038"
       style="fill:black;fill-rule:nonzero;stroke:none"
       id="path230" />
    <path
       d="M 765.80077,353.43031 L 787.39232,353.43031 L 787.39232,375.02438 L 765.80077,397.28417 L 765.80077,353.43031"
       style="fill:black;fill-rule:nonzero;stroke:none"
       id="path232" />
    <path
       d="M 691.94077,336.89843 C 691.94077,346.32937 697.8684,351.72442 705.95658,351.72442 C 714.04475,351.72442 718.89212,346.32937 718.89212,337.43933 L 718.89212,294.29279 C 718.89212,286.74804 713.50462,280.54859 705.95658,280.54859 C 696.52499,280.54859 693.56117,287.82983 691.94077,291.06131 L 665.82039,291.06131 L 665.82039,187.57065 L 737.99074,187.57065 L 737.99074,213.43638 L 691.94077,213.43638 L 691.94077,265.18171 C 697.06512,260.32755 705.13945,256.29166 714.84803,256.29166 C 733.44806,256.29166 746.38361,268.14968 746.38361,290.25691 L 746.38361,337.98022 C 746.38361,363.58244 727.24344,379.21283 705.41644,379.21283 C 683.58945,379.21283 664.44928,362.65321 664.44928,337.05099 L 691.94077,336.89843"
       style="fill:black;fill-rule:nonzero;stroke:none"
       id="path234" />
    <path
       d="M 492.52014,153.5638 L 1059.3572,153.5638 L 1059.3572,139.70865 L 492.52014,139.70865 L 492.52014,153.5638 z "
       style="fill:black;fill-rule:nonzero;stroke:none"
       id="path236" />
    <path
       d="M 1031.5749,-129.91906 L 693.03488,-129.91906 C 683.5756,-129.91906 671.96962,-122.23562 671.96962,-112.77694 L 671.87267,-112.41635 L 611.23905,-112.41635 C 609.81254,-112.41635 596.9601,-112.22218 588.06864,-105.56505 C 579.31569,-99.005003 576.00563,-89.601804 575.64554,-88.547758 C 575.68709,-88.65871 564.05341,-55.789123 558.58281,-40.32516 L 547.00453,-40.32516 C 537.53139,-40.32516 529.85871,-32.65559 529.85871,-23.183046 L 529.85871,69.059835 L 519.40225,69.059835 C 513.55771,69.059835 508.82114,73.803041 508.82114,79.641901 C 508.82114,85.48076 513.55771,90.223966 519.40225,90.223966 L 547.76626,90.223966 C 548.1125,118.30874 570.93667,140.99846 599.12064,140.99846 C 627.30461,140.99846 650.12877,118.30874 650.48886,90.223966 L 891.49989,90.223966 C 891.85998,118.30874 914.68414,140.99846 942.86811,140.99846 C 971.03823,140.99846 993.87625,118.30874 994.22249,90.223966 L 1031.5749,90.223966 L 1031.5749,-129.91906 z M 591.3787,-83.152708 C 591.42025,-83.291398 593.3869,-88.769663 598.05422,-92.264657 C 601.82131,-95.093938 609.05081,-95.77352 611.26675,-95.801258 C 611.2529,-95.801258 644.65818,-95.801258 667.73164,-95.801258 L 653.89587,-40.32516 L 576.21337,-40.32516 L 591.3787,-83.152708"
       style="fill:black;fill-rule:nonzero;stroke:none"
       id="path238" />
  </g>
</svg>
