<?xml version="1.0" encoding="UTF-8" standalone="no"?>
<!-- Created with Inkscape (http://www.inkscape.org/) -->
<svg
   xmlns:svg="http://www.w3.org/2000/svg"
   xmlns="http://www.w3.org/2000/svg"
   version="1.0"
   width="960"
   height="960"
   id="svg3621">
  <defs
     id="defs3623" />
  <g
     transform="translate(-315.303,392.9798)"
     id="layer1">
    <path
       d="M 315.303,87.02018 C 315.303,-178.07532 530.20112,-392.97982 795.303,-392.97982 C 1060.391,-392.97982 1275.303,-178.07532 1275.303,87.02018 C 1275.303,352.11568 1060.391,567.02018 795.303,567.02018 C 530.20112,567.02018 315.303,352.11568 315.303,87.02018 z "
       style="fill:#ee1c23;fill-rule:nonzero;stroke:none"
       id="path3638" />
    <path
       d="M 795.303,442.94147 C 991.871,442.94147 1151.2254,283.58778 1151.2254,87.02018 C 1151.2254,-109.54742 991.871,-268.90111 795.303,-268.90111 C 598.735,-268.90111 439.38059,-109.54742 439.38059,87.02018 C 439.38059,283.58778 598.735,442.94147 795.303,442.94147"
       style="fill:white;fill-rule:nonzero;stroke:none"
       id="path212" />
    <path
       d="M 823.42762,255.44536 L 838.47907,255.44536 L 838.47907,262.67486 L 838.76958,262.67486 C 841.86841,257.95214 846.00479,254.55899 852.93565,254.55899 C 859.42382,254.55899 863.69854,258.39533 866.35468,262.07933 C 870.03453,257.95214 874.01874,254.55899 881.98715,254.55899 C 889.49904,254.55899 898.35283,259.4202 898.35283,272.84048 L 898.35283,330.21944 L 883.31522,330.21944 L 883.31522,278.44958 C 883.31522,272.99283 880.65908,269.59967 875.94167,269.59967 C 870.33888,269.59967 868.41595,273.28367 868.41595,279.93148 L 868.41595,330.21944 L 853.37834,330.21944 L 853.37834,278.44958 C 853.37834,272.99283 850.7222,269.59967 846.00479,269.59967 C 840.38817,269.59967 838.47907,273.28367 838.47907,279.93148 L 838.47907,330.21944 L 823.42762,330.21944 L 823.42762,255.44536"
       style="fill:black;fill-rule:nonzero;stroke:none"
       id="path214" />
    <path
       d="M 711.28882,207.1656 L 689.6662,226.73511 L 689.6662,199.43752 L 711.28882,180.60204 L 732.91144,180.60204 L 732.91144,330.12249 L 711.28882,330.12249 L 711.28882,207.1656"
       style="fill:black;fill-rule:nonzero;stroke:none"
       id="path216" />
    <path
       d="M 746.67632,211.04349 C 746.67632,190.8923 761.72776,178.59384 778.90965,178.59384 C 796.09154,178.59384 811.14299,190.8923 811.14299,211.04349 L 811.14299,299.68104 C 811.14299,319.83223 796.09154,332.13069 778.90965,332.13069 C 761.72776,332.13069 746.67632,319.83223 746.67632,299.68104 L 746.67632,211.04349 z M 768.29894,299.68104 C 768.29894,305.83027 772.7535,310.49759 778.90965,310.49759 C 785.05197,310.49759 789.50653,305.83027 789.50653,299.68104 L 789.50653,211.04349 C 789.50653,204.88041 785.05197,200.22694 778.90965,200.22694 C 772.7535,200.22694 768.29894,204.88041 768.29894,211.04349 L 768.29894,299.68104"
       style="fill:black;fill-rule:nonzero;stroke:none"
       id="path218" />
    <path
       d="M 683.08119,225.98723 L 605.9702,225.98723 L 605.9702,190.8369 L 523.72678,255.41766 L 605.9702,319.99842 L 605.9702,284.86195 L 683.08119,284.86195 L 683.08119,225.98723"
       style="fill:black;fill-rule:nonzero;stroke:none"
       id="path220" />
    <path
       d="M 906.25207,284.86195 L 983.34923,284.86195 L 983.34923,319.99842 L 1065.6065,255.41766 L 983.34923,190.8369 L 983.34923,225.98723 L 906.25207,225.98723 L 906.25207,284.86195"
       style="fill:black;fill-rule:nonzero;stroke:none"
       id="path222" />
    <path
       d="M 1028.8771,-134.26899 L 690.34407,-134.26899 C 680.86775,-134.26899 669.27481,-126.5963 669.27481,-117.12316 L 669.17797,-116.77692 L 608.54334,-116.77692 C 607.11843,-116.77692 594.2666,-116.58303 585.37131,-109.92136 C 576.62819,-103.35664 573.30801,-93.952756 572.96216,-92.914034 C 572.98983,-93.010982 561.3554,-60.145842 555.89095,-44.675821 L 544.29801,-44.675821 C 534.83552,-44.675821 527.15763,-37.003134 527.15763,-27.529996 L 527.15763,64.708448 L 516.69909,64.708448 C 510.86112,64.708448 506.12987,69.445017 506.12987,75.289555 C 506.12987,81.134093 510.86112,85.870662 516.69909,85.870662 L 545.05889,85.870662 C 545.41857,113.97153 568.24475,136.64336 596.42471,136.64336 C 624.60467,136.64336 647.43085,113.97153 647.79053,85.870662 L 888.80734,85.870662 C 889.16702,113.97153 911.97937,136.64336 940.17316,136.64336 C 968.35312,136.64336 991.1793,113.97153 991.52515,85.870662 L 1028.8771,85.870662 L 1028.8771,-134.26899 z M 588.67764,-87.512684 C 588.71915,-87.637331 590.69741,-93.121779 595.34565,-96.611882 C 599.13618,-99.451053 606.34372,-100.12968 608.57101,-100.14353 C 608.55717,-100.14353 641.9664,-100.14353 665.02776,-100.14353 L 651.19371,-44.675821 L 573.52936,-44.675821 L 588.67764,-87.512684"
       style="fill:black;fill-rule:nonzero;stroke:none"
       id="path224" />
  </g>
</svg>
