<?xml version="1.0" encoding="UTF-8" standalone="no"?>
<!-- Created with Inkscape (http://www.inkscape.org/) -->

<svg
   xmlns:dc="http://purl.org/dc/elements/1.1/"
   xmlns:cc="http://creativecommons.org/ns#"
   xmlns:rdf="http://www.w3.org/1999/02/22-rdf-syntax-ns#"
   xmlns:svg="http://www.w3.org/2000/svg"
   xmlns="http://www.w3.org/2000/svg"
   xmlns:sodipodi="http://sodipodi.sourceforge.net/DTD/sodipodi-0.dtd"
   xmlns:inkscape="http://www.inkscape.org/namespaces/inkscape"
   width="967.37268"
   height="960.62341"
   id="svg3544"
   version="1.1"
   inkscape:version="0.47 r22583"
   sodipodi:docname="Hinweiszeichen 25.svg">
  <defs
     id="defs3546">
    <inkscape:perspective
       sodipodi:type="inkscape:persp3d"
       inkscape:vp_x="0 : 526.18109 : 1"
       inkscape:vp_y="0 : 1000 : 0"
       inkscape:vp_z="744.09448 : 526.18109 : 1"
       inkscape:persp3d-origin="372.04724 : 350.78739 : 1"
       id="perspective3552" />
    <inkscape:perspective
       id="perspective3566"
       inkscape:persp3d-origin="480 : 400 : 1"
       inkscape:vp_z="960 : 600 : 1"
       inkscape:vp_y="0 : 1000 : 0"
       inkscape:vp_x="0 : 600 : 1"
       sodipodi:type="inkscape:persp3d" />
    <inkscape:perspective
       id="perspective3583"
       inkscape:persp3d-origin="0.5 : 0.33333333 : 1"
       inkscape:vp_z="1 : 0.5 : 1"
       inkscape:vp_y="0 : 1000 : 0"
       inkscape:vp_x="0 : 0.5 : 1"
       sodipodi:type="inkscape:persp3d" />
    <clipPath
       clipPathUnits="userSpaceOnUse"
       id="clipPath3536">
      <path
         d="m 1.526e-6,109.92 595.319998474,0 0,163.8 -595.319998474,0 0,-163.8 z"
         clip-rule="evenodd"
         id="path3538" />
    </clipPath>
    <inkscape:perspective
       id="perspective3634"
       inkscape:persp3d-origin="480 : 400 : 1"
       inkscape:vp_z="960 : 600 : 1"
       inkscape:vp_y="0 : 1000 : 0"
       inkscape:vp_x="0 : 600 : 1"
       sodipodi:type="inkscape:persp3d" />
    <inkscape:perspective
       id="perspective3660"
       inkscape:persp3d-origin="480 : 320 : 1"
       inkscape:vp_z="960 : 480 : 1"
       inkscape:vp_y="0 : 1000 : 0"
       inkscape:vp_x="0 : 480 : 1"
       sodipodi:type="inkscape:persp3d" />
    <inkscape:perspective
       id="perspective3686"
       inkscape:persp3d-origin="480 : 400 : 1"
       inkscape:vp_z="960 : 600 : 1"
       inkscape:vp_y="0 : 1000 : 0"
       inkscape:vp_x="0 : 600 : 1"
       sodipodi:type="inkscape:persp3d" />
    <inkscape:perspective
       id="perspective4492"
       inkscape:persp3d-origin="500 : 291.64766 : 1"
       inkscape:vp_z="1000 : 437.4715 : 1"
       inkscape:vp_y="0 : 1000 : 0"
       inkscape:vp_x="0 : 437.4715 : 1"
       sodipodi:type="inkscape:persp3d" />
    <inkscape:perspective
       id="perspective4526"
       inkscape:persp3d-origin="600 : 320 : 1"
       inkscape:vp_z="1200 : 480 : 1"
       inkscape:vp_y="0 : 1000 : 0"
       inkscape:vp_x="0 : 480 : 1"
       sodipodi:type="inkscape:persp3d" />
    <inkscape:perspective
       id="perspective4598"
       inkscape:persp3d-origin="600 : 320 : 1"
       inkscape:vp_z="1200 : 480 : 1"
       inkscape:vp_y="0 : 1000 : 0"
       inkscape:vp_x="0 : 480 : 1"
       sodipodi:type="inkscape:persp3d" />
    <inkscape:perspective
       id="perspective4878"
       inkscape:persp3d-origin="0.5 : 0.33333333 : 1"
       inkscape:vp_z="1 : 0.5 : 1"
       inkscape:vp_y="0 : 1000 : 0"
       inkscape:vp_x="0 : 0.5 : 1"
       sodipodi:type="inkscape:persp3d" />
    <clipPath
       clipPathUnits="userSpaceOnUse"
       id="clipPath4826">
      <path
         d="m 0,638.4 595.32,0 0,118.44 L 0,756.84 0,638.4 z"
         clip-rule="evenodd"
         id="path4828" />
    </clipPath>
    <inkscape:perspective
       inkscape:vp_x="0 : 526.18109 : 1"
       inkscape:vp_y="0 : 1000 : 0"
       inkscape:vp_z="744.09448 : 526.18109 : 1"
       inkscape:persp3d-origin="372.04724 : 350.78739 : 1"
       id="perspective10"
       sodipodi:type="inkscape:persp3d" />
    <inkscape:perspective
       inkscape:vp_x="0 : 480 : 1"
       inkscape:vp_y="0 : 1000 : 0"
       inkscape:vp_z="960 : 480 : 1"
       inkscape:persp3d-origin="480 : 320 : 1"
       id="perspective2825"
       sodipodi:type="inkscape:persp3d" />
    <inkscape:perspective
       inkscape:vp_x="0 : 0.5 : 1"
       inkscape:vp_y="0 : 1000 : 0"
       inkscape:vp_z="1 : 0.5 : 1"
       inkscape:persp3d-origin="0.5 : 0.33333333 : 1"
       id="perspective2839"
       sodipodi:type="inkscape:persp3d" />
    <inkscape:perspective
       inkscape:vp_x="0 : 345 : 1"
       inkscape:vp_y="0 : 1000 : 0"
       inkscape:vp_z="690 : 345 : 1"
       inkscape:persp3d-origin="345 : 230 : 1"
       id="perspective2859"
       sodipodi:type="inkscape:persp3d" />
    <inkscape:perspective
       id="perspective4972"
       inkscape:persp3d-origin="0.5 : 0.33333333 : 1"
       inkscape:vp_z="1 : 0.5 : 1"
       inkscape:vp_y="0 : 1000 : 0"
       inkscape:vp_x="0 : 0.5 : 1"
       sodipodi:type="inkscape:persp3d" />
    <inkscape:perspective
       id="perspective4989"
       inkscape:persp3d-origin="480 : 320 : 1"
       inkscape:vp_z="960 : 480 : 1"
       inkscape:vp_y="0 : 1000 : 0"
       inkscape:vp_x="0 : 480 : 1"
       sodipodi:type="inkscape:persp3d" />
  </defs>
  <sodipodi:namedview
     id="base"
     pagecolor="#ffffff"
     bordercolor="#666666"
     borderopacity="1.0"
     inkscape:pageopacity="0.0"
     inkscape:pageshadow="2"
     inkscape:zoom="0.41357422"
     inkscape:cx="953.91635"
     inkscape:cy="431.50553"
     inkscape:document-units="px"
     inkscape:current-layer="layer1"
     showgrid="false"
     inkscape:window-width="1600"
     inkscape:window-height="837"
     inkscape:window-x="-4"
     inkscape:window-y="-4"
     inkscape:window-maximized="1" />
  <metadata
     id="metadata3549">
    <rdf:RDF>
      <cc:Work
         rdf:about="">
        <dc:format>image/svg+xml</dc:format>
        <dc:type
           rdf:resource="http://purl.org/dc/dcmitype/StillImage" />
        <dc:title></dc:title>
      </cc:Work>
    </rdf:RDF>
  </metadata>
  <g
     inkscape:label="Livello 1"
     inkscape:groupmode="layer"
     id="layer1"
     transform="translate(356.89825,200.76072)">
    <path
       d="m 585.88097,759.86271 c 6.56907,0 12.74312,-2.02532 17.38852,-5.70771 4.6444,-3.66638 7.20492,-8.55756 7.20492,-13.76093 l 0,-921.68918 c 0,-5.20121 -2.56052,-10.09055 -7.20492,-13.75985 -4.6454,-3.67846 -10.81945,-5.70576 -17.38852,-5.70576 l -918.18639,0 c -13.56488,0 -24.59283,8.73297 -24.59283,19.46561 l 0,921.68918 c 0,5.20337 2.54842,10.09455 7.20521,13.76093 4.64521,3.68239 10.81946,5.70771 17.38762,5.70771 l 918.18639,0 z"
       style="fill:#000000;fill-rule:nonzero;stroke:none"
       id="path14525" />
    <path
       d="m -332.30542,753.44254 c -4.40195,0 -8.53736,-1.36088 -11.65352,-3.82648 -3.11604,-2.45759 -4.83051,-5.73173 -4.83051,-9.22199 l 0,-921.68918 c 0,-3.47665 1.71447,-6.76063 4.83051,-9.2191 3.11616,-2.46759 7.25157,-3.82523 11.65352,-3.82523 l 918.18639,0 c 4.40256,0 8.53807,1.35764 11.65382,3.82523 3.11675,2.45847 4.83081,5.74245 4.83081,9.2191 l 0,921.68918 c 0,7.19668 -7.39032,13.04847 -16.48463,13.04847 l -918.18639,0"
       style="fill:#ffffff;fill-rule:nonzero;stroke:none"
       id="path271" />
    <g
       transform="matrix(0.75316802,0,0,0.75316802,-474.75223,135.81265)"
       id="layer1-5">
      <path
         d="m 315.342,86.9647 c 0,-265.0787 214.905,-479.9927 480,-479.9927 265.098,0 479.998,214.914 479.998,479.9927 0,265.0923 -214.9,480.0073 -479.998,480.0073 -265.095,0 -480,-214.915 -480,-480.0073"
         style="fill:#176fc1;fill-rule:nonzero;stroke:none"
         id="path10502" />
      <path
         d="m 1154.28,56.439 c -30,-29.9987 -69.9,-46.53055 -112.33,-46.53055 -20.32,0 -39.75,3.88335 -57.63,10.87335 l -36.798,-81.8273 14.86,-23.5635 c 26.051,5.2703 51.768,10.4018 53.168,10.4018 14.56,0 26.36,-11.8025 26.36,-26.3508 0,-14.549 -11.8,-26.338 -26.36,-26.338 -0.73,0 -108.649,0.097 -108.649,0.097 -0.014,0 -0.014,0 -0.014,0 -8.49,0 -15.359,6.893 -15.359,15.381 0,8.488 6.869,15.3671 15.359,15.3671 l 0,0.1526 c 0,0 16.135,3.3008 35.967,7.3367 l -11.938,18.9173 -279.818,0 c 7.257,-21.7327 12.036,-36.1007 12.036,-36.1007 0.083,-0.25 0.11,-0.5 0.166,-0.749 0.069,-0.264 0.152,-0.541 0.18,-0.805 0.041,-0.277 0.028,-0.541 0.028,-0.804 0.013,-0.277 0.041,-0.541 0.027,-0.804 -0.027,-0.264 -0.083,-0.528 -0.138,-0.791 -0.042,-0.25 -0.07,-0.513 -0.139,-0.749 -0.055,-0.263 -0.166,-0.499 -0.263,-0.735 -0.097,-0.25 -0.166,-0.499 -0.277,-0.735 -0.125,-0.222 -0.277,-0.43 -0.402,-0.652 -0.138,-0.222 -0.263,-0.458 -0.429,-0.679 -0.152,-0.195 -0.346,-0.375 -0.526,-0.569 -0.18,-0.194 -0.333,-0.402 -0.54,-0.583 -0.194,-0.18 -0.43,-0.319 -0.637,-0.471 -0.222,-0.167 -0.416,-0.333 -0.651,-0.472 -0.236,-0.138 -0.499,-0.235 -0.762,-0.346 -0.222,-0.111 -0.443,-0.236 -0.693,-0.333 l -45.634,-15.866 13.67,-35.866 110.021,-1.22 32.56,29.444 c 3.338,3.023 8.49,2.76 11.509,-0.583 3.02,-3.328 2.756,-8.488 -0.581,-11.511 l -34.929,-31.594 -2.368,-2.136 -3.186,0.042 -118.76,1.318 -5.54,0.055 -23.6,61.925 7.936,2.76 45.953,15.991 -41.341,124.0309 C 585.603,13.667 566.075,9.90845 545.966,9.90845 c -87.613,0 -158.869,71.27295 -158.869,158.86955 0,42.439 16.522,82.327 46.521,112.339 30.012,29.999 69.913,46.531 112.348,46.531 42.435,0 82.322,-16.532 112.334,-46.531 29.998,-30.012 46.535,-69.9 46.535,-112.339 0,-42.439 -16.537,-82.3264 -46.535,-112.339 -11.814,-11.8025 -25.165,-21.4831 -39.582,-28.9308 3.85,-11.539 7.742,-23.21671 11.537,-34.60318 L 751.12,121.929 c -8.337,10.263 -13.351,23.313 -13.351,37.543 0,15.936 6.205,30.914 17.478,42.19 11.274,11.275 26.259,17.475 42.2,17.475 2.382,0 4.737,-0.181 7.063,-0.458 l 2.978,13.286 -19.362,0 0,18.627 53.571,0 0,-18.627 -24.666,0 -3.38,-15.089 c 9.723,-2.732 18.656,-7.878 25.996,-15.214 8.781,-8.78 14.431,-19.819 16.522,-31.802 l 26.966,1.026 c 0.54,41.649 16.966,80.718 46.479,110.231 29.998,29.999 69.899,46.531 112.336,46.531 42.43,0 82.33,-16.532 112.33,-46.531 30.01,-30.012 46.54,-69.9 46.54,-112.339 0,-42.439 -16.53,-82.3264 -46.54,-112.339 z M 638.537,76.2024 c 24.735,24.7286 38.349,57.6116 38.349,92.5756 0,72.188 -58.736,130.924 -130.92,130.924 -34.97,0 -67.849,-13.62 -92.585,-38.348 -24.721,-24.729 -38.349,-57.598 -38.349,-92.576 0,-34.964 13.628,-67.847 38.349,-92.5756 24.736,-24.7285 57.615,-38.3479 92.585,-38.3479 17.049,0 33.613,3.2593 48.972,9.4587 l -28.766,86.2928 c -2.188,5.936 -10.775,22.926 -23.073,27.544 -4.21,1.581 -6.343,6.269 -4.764,10.485 1.579,4.216 6.274,6.352 10.484,4.771 21.896,-8.21 32.311,-36.254 32.74,-37.446 0.028,-0.084 12.784,-38.32 28.184,-84.5459 10.429,5.8389 20.124,13.1063 28.794,21.7883 z M 969.459,27.4805 C 922.204,51.8206 888.675,99.1417 883.744,154.59 l -26.91,-1.026 c -1.329,-13.703 -7.326,-26.421 -17.187,-36.295 -0.942,-0.93 -1.925,-1.776 -2.908,-2.636 l 100.354,-159.1327 32.366,71.9802 z m 11.44,25.4219 48.221,107.2356 -117.455,-4.48 c 2.978,-30.013 16.093,-57.8477 37.712,-79.4556 9.432,-9.431 20.055,-17.2392 31.522,-23.3 z M 785.827,135.132 772.656,121.083 c 2.839,-1.845 5.873,-3.329 9.016,-4.48 l 4.155,18.529 z m 4.875,-20.831 c 2.216,-0.319 4.46,-0.541 6.745,-0.541 5.554,0 10.928,1.026 15.983,2.912 l -16.385,25.963 -6.343,-28.334 z m 38.475,12.315 c 0.193,0.181 0.401,0.347 0.581,0.527 7.105,7.101 11.523,16.13 12.894,25.894 l -29.43,-1.124 15.955,-25.297 z m -184.283,-177.6342 274.277,0 -98.166,155.6522 c -7.34,-3.148 -15.317,-4.8404 -23.558,-4.8404 -3.338,0 -6.592,0.3464 -9.792,0.8734 l -6.634,-29.6794 21.08,0 0,-18.6399 -53.557,0 0,18.6399 22.935,0 7.133,31.8984 c -5.609,1.873 -10.845,4.549 -15.581,7.92 L 636.113,-24.6809 c 3.075,-9.2229 6.025,-18.0713 8.781,-26.3373 z M 797.447,205.17 c -12.201,0 -23.683,-4.757 -32.311,-13.383 -8.642,-8.641 -13.393,-20.11 -13.393,-32.315 0,-9.958 3.2,-19.389 9.044,-27.225 l 32.048,34.215 8.601,38.5 c -1.316,0.125 -2.645,0.208 -3.989,0.208 z m 13.143,-1.955 -7.908,-35.394 39.375,1.498 c -3.587,16.185 -15.733,29.167 -31.467,33.896 z m 231.36,96.487 c -34.97,0 -67.851,-13.62 -92.573,-38.348 -23.987,-23.98 -37.477,-55.629 -38.28,-89.4 l 130.543,4.965 8.06,-1.151 -0.31,-10.332 -53.616,-119.2046 c 14.556,-5.4782 30.136,-8.3769 46.176,-8.3769 34.97,0 67.85,13.6194 92.58,38.3479 24.72,24.7286 38.34,57.6116 38.34,92.5756 0,72.188 -58.72,130.924 -130.92,130.924"
         style="fill:#ffffff;fill-rule:nonzero;stroke:none"
         id="path10504" />
    </g>
    <g
       transform="scale(0.92512614,1.0809337)"
       style="font-size:131.10047913px;font-style:normal;font-variant:normal;font-weight:normal;font-stretch:normal;text-align:start;line-height:100%;writing-mode:lr-tb;text-anchor:start;fill:#000000;fill-opacity:1;stroke:none;font-family:Transport Heavy;-inkscape-font-specification:'Transport Heavy,'"
       id="text4995">
      <path
         d="m -321.66745,550.99796 1.79239,0 0.76817,0 0.76816,0 3.32873,0 2.04844,0 3.58478,0 0.76817,0 1.28028,0 0.76816,0 1.02423,0 0.76816,0 5.12111,0 4.35295,0 0.76817,0 3.07266,0 3.32873,0 1.02422,0 4.35295,0 2.04844,0 1.79239,0 2.81661,0 1.28028,0 3.32872,0 1.02423,0 4.35294,0 0.76817,0 3.07267,0 0,19.46022 -0.76817,0 -5.12111,0 -1.79239,0 -1.79239,0 -1.02423,0 -1.28027,0 -3.32873,0 -1.02422,0 -4.35294,0 -0.76817,0 -3.07267,0 -1.02422,0 -1.02422,0 -0.76817,0 -4.609,0 -3.32873,0 -1.02422,0 -4.35294,0 -0.76817,0 -3.07267,0 0,19.71629 1.79239,0 5.12111,0 1.53634,0 0.76816,0 1.02423,0 0.76816,0 1.28028,0 0.76817,0 1.02422,0 0.76817,0 5.12111,0 1.02422,0 1.02423,0 0.76816,0 4.609,0 3.32873,0 1.02422,0 4.35295,0 0.76816,0 3.07267,0 0,18.436 -3.58478,0 -0.76817,0 -1.28027,0 -0.76817,0 -1.02422,0 -0.76817,0 -5.12111,0 -3.32873,0 -1.79239,0 -3.58477,0 -0.76817,0 -4.609,0 -3.32873,0 -1.02422,0 -4.35294,0 -0.76817,0 -3.07267,0 0,40.45679 -0.25605,0 0.25605,0 -0.51211,0 0.25606,0 -0.51211,0 0.25605,0 -0.51211,0 0.25606,0 -0.51212,0 0.25606,0 -0.51211,0 0.25605,0 -0.51211,0 0.25606,0 -0.51211,0 0.25605,0 -0.51211,0 0.25606,0 -0.51211,0 0.25605,0 -0.51211,0 0.25606,0 -0.51211,0 0.25605,0 -0.51211,0 0.25606,0 -0.51212,0 0.25606,0 -0.51211,0 0.25605,0 -0.51211,0 0.25606,0 -0.51211,0 0.25605,0 -0.51211,0 0.25606,0 -0.51211,0 0.25605,0 -0.51211,0 0.25606,0 -0.51212,0 0.25606,0 -0.51211,0 0.25605,0 -0.51211,0 0.25606,0 -0.51211,0 0.25605,0 -0.51211,0 0.25606,0 -0.51211,0 0.25605,0 -0.51211,0 0.25606,0 -0.51211,0 0.25605,0 -0.51211,0 0.25606,0 -0.51212,0 0.25606,0 -0.51211,0 0.25605,0 -0.51211,0 0.25606,0 -0.51211,0 0.25605,0 -0.51211,0 0.25606,0 -0.51211,0 0.25605,0 -0.51211,0 0.25606,0 -0.51212,0 0.25606,0 -0.51211,0 0.25605,0 -0.51211,0 0.25606,0 -0.51211,0 0.25605,0 -0.51211,0 0.25606,0 -0.51211,0 0.25605,0 -0.51211,0 0.25606,0 -0.51211,0 0.25605,0 -0.51211,0 0.25606,0 -0.51212,0 0.25606,0 -0.51211,0 0.25605,0 -0.51211,0 0.25606,0 -0.51211,0 0.25605,0 -0.51211,0 0.25606,0 -0.51211,0 0.25605,0 -0.51211,0 0.25606,0 -0.51212,0 0.25606,0 -0.51211,0 0.25605,0 -0.51211,0 0.25606,0 -0.51211,0 0.25605,0 -0.51211,0 0.25606,0 -0.51211,0 0.25605,0 -0.51211,0 0.25606,0 -0.51211,0 0.25605,0 -0.51211,0 0.25606,0 -0.51212,0 0.25606,0 -0.51211,0 0.25605,0 -0.51211,0 0.25606,0 -0.51211,0 0.25605,0 -0.51211,0 0.25606,0 -0.51211,0 0.25605,0 -0.51211,0 0.25606,0 -0.51212,0 0.25606,0 -0.51211,0 0.25605,0 -0.51211,0 0.25606,0 -0.51211,0 0.25605,0 -0.51211,0 0.25606,0 -0.51211,0 0.25605,0 -0.51211,0 0.25606,0 -0.51211,0 0.25605,0 -0.51211,0 0.25606,0 -0.51212,0 0.25606,0 -0.51211,0 0.25605,0 -0.25605,0 0,-1.02422 0,-4.609 0,-2.04845 0,-2.04844 0,-0.76817 0,-1.02422 0,-4.609 0,-0.76817 0,-5.12111 0,-2.04845 0,-1.02422 0,-4.609 0,-0.76817 0,-0.76817 0,-7.93772 0,-1.79239 0,-0.76817 0,-1.02422 0,-4.609 0,-3.58478 0,-0.76817 0,-1.28027 0,-0.76817 0,-1.02422 0,-0.76817 0,-5.12111 0,-4.35295 0,-0.76817 0,-3.07266 0,-3.32873 0,-1.02422 0,-4.35294 0,-0.76817 0,-3.07267 0,-2.81661 0,-1.28028 0,-3.32872 0,-1.02422 0,-4.35295 0,-0.76817 0,-3.07266 z"
         style=""
         id="path5000" />
      <path
         d="m -225.64659,576.09141 c 11.69316,-0.76808 21.42327,2.13388 29.19034,8.70589 l 0.25606,0.51211 c 0.68275,0.85359 1.19486,1.70711 1.53633,2.56056 0.89613,1.32302 1.49359,2.51795 1.79239,3.58477 l 0,1.02423 c 0.51204,1.66443 0.7681,3.11541 0.76817,4.35294 l 0,25.09345 c -0.17077,4.22496 -7e-5,7.72438 0.51211,10.49828 2.09105,2.1765 4.4809,3.54213 7.16955,4.09689 l -0.51211,0.76817 -0.51211,1.28028 -0.51211,1.02422 -0.25605,0.76817 -0.25606,0.76817 -0.51211,0.76816 -1.02422,2.56056 -0.51212,0.76817 -0.25605,0.76816 -0.25606,0.76817 -0.25605,0.51211 -1.79239,3.84083 c -7.59638,0.0427 -13.31495,-2.34716 -17.15573,-7.16955 -7.29763,7.25492 -16.34492,9.04731 -27.14189,5.37717 -9.94351,-2.73125 -15.74743,-8.79123 -17.41179,-18.17995 0.0854,-13.78429 6.57209,-21.80735 19.46023,-24.06923 0.68279,-0.42671 1.3656,-0.68276 2.04845,-0.76817 l 0.76816,0 c 0.25603,-0.17065 0.51209,-0.256 0.76817,-0.25606 l 0.76817,-0.25605 4.609,-0.76817 2.04844,-0.25605 0.76817,-0.25606 4.35294,-0.25605 c 2.30446,-0.34135 4.1822,-0.42671 5.63323,-0.25606 0.64009,-9.51667 -4.56637,-12.76003 -15.61939,-9.73011 l -0.76817,0.25605 -2.04845,0.25606 -1.79239,0.76816 -0.76816,0.25606 -2.56056,0.76817 c -1.32297,0.89626 -2.5179,1.49372 -3.58478,1.79239 -1.451,1.10963 -2.90198,1.8778 -4.35294,2.3045 l -1.79239,-3.32873 -0.51211,-0.25605 -0.25606,-0.76817 -0.51211,-0.51211 -0.25606,-0.76817 c -1.10958,-1.28021 -1.87775,-2.47513 -2.3045,-3.58478 -0.68282,-0.64006 -1.10958,-1.32288 -1.28027,-2.04844 -1.10959,-1.06682 -1.7924,-2.1764 -2.04845,-3.32872 l 0.51211,-0.25606 0.76817,-0.51211 0.51211,-0.25606 c 1.15224,-0.76808 2.17646,-1.36555 3.07267,-1.79239 0.6828,-0.46935 1.36561,-0.72541 2.04844,-0.76816 l 0.51211,-0.51211 c 1.579,-0.72541 2.94463,-1.23752 4.09689,-1.53634 l 0.51211,-0.51211 0.76817,0 c 0.81082,-0.51203 1.49364,-0.85343 2.04845,-1.02422 l 0.76816,0 c 1.15223,-0.59738 2.2618,-0.93879 3.32873,-1.02422 2.34715,-0.98146 4.56629,-1.49358 6.65744,-1.53634 l 0.76817,-0.25605 z m 12.29067,42.24917 -0.76817,0 c -1.02426,0.29878 -1.87778,0.46948 -2.56055,0.51212 l -0.76817,0 c -0.2561,0.17074 -0.51215,0.2561 -0.76817,0.25605 l -1.02422,0.25606 -0.76817,0 -1.02422,0.25605 -1.53633,0.25606 c -0.25609,0.17074 -0.51215,0.2561 -0.76817,0.25605 l -1.02422,0.25606 -0.76817,0.25606 c -2.38988,0.5975 -4.26762,1.19496 -5.63322,1.79238 -1.79242,2.3899 -2.30453,4.8651 -1.53634,7.42562 4.26757,5.97466 10.4129,6.99888 18.43601,3.07267 l 2.04844,-3.07267 0.25606,-1.02422 0,-1.02423 0,-0.76816 0,-1.28028 0,-0.76817 0,-1.02422 0,-0.76817 0,-5.12111 -0.76817,0 z"
         style=""
         id="path5002" />
      <path
         d="m -167.52196,551.25401 1.02422,0 1.28028,0 3.32872,0 1.02423,0 4.35294,0 0.76817,0 3.07267,0 0,32.51907 c 8.44979,-6.48666 17.24103,-8.02299 26.37372,-4.60901 8.19372,3.58486 13.74159,9.21808 16.64362,16.89968 l 0,1.02422 c 1.06683,2.73132 1.57894,5.29187 1.53633,7.68167 l 0,44.29762 -4.35294,0 -1.02422,0 -1.28028,0 -3.32873,0 -1.02422,0 -4.35294,0 -0.76817,0 -3.07267,0 0,-1.79239 0,-0.76817 0,-0.76816 0,-7.93773 0,-0.76816 0,-0.76817 0,-3.32872 0,-1.28028 0,-1.53634 0,-0.76816 0,-5.12112 0,-1.53633 0,-0.76817 0,-1.02422 0,-0.76817 0,-1.28027 0,-2.81662 0,-2.81661 0,-1.02422 0,-0.76817 0,-1.79239 0,-0.76816 0,-0.76817 0,-0.76817 0,-1.79239 -0.25605,-1.53633 c -0.55484,-1.15219 -0.89625,-2.17641 -1.02423,-3.07267 -3.28609,-4.56626 -7.55368,-6.444 -12.80278,-5.63322 -3.92622,1.15232 -7.08423,3.11541 -9.47406,5.88928 l -0.25605,1.02422 c -0.81087,1.57907 -1.32298,3.03005 -1.53633,4.35295 l 0,42.50523 -4.35295,0 -1.02422,0 -1.28028,0 -3.32872,0 -1.02423,0 -4.35294,0 -0.76817,0 -3.07267,0 0,-0.76817 0,-1.02422 0,-0.76817 0,-1.02422 0,-4.609 0,-2.04845 0,-2.04844 0,-0.76817 0,-5.12111 0,-1.02422 0,-1.28028 0,-1.02422 0,-1.28028 0,-3.32872 0,-1.02423 0,-4.35294 0,-0.76817 0,-3.07267 0,-1.02422 0,-1.28028 0,-3.32872 0,-1.02422 0,-4.35295 0,-0.76817 0,-3.07266 0,-1.79239 0,-2.04845 0,-2.04844 0,-2.04845 0,-0.76816 0,-0.76817 0,-7.93773 0,-1.79238 0,-1.53634 0,-1.79239 0,-1.53633 0,-1.28028 0,-1.53633 0,-1.02423 0,-4.609 0,-2.81661 0,-1.02422 0,-1.02422 0,-1.02423 0,-1.02422 0,-4.35294 0,-0.76817 0,-3.07267 z"
         style=""
         id="path5004" />
      <path
         d="m -53.321154,577.8838 0.768167,0 5.121113,0 0,18.436 c -9.858182,-1.28021 -16.942381,1.87781 -21.252617,9.47406 l 0,0.76817 c -0.768195,2.00582 -1.109603,3.96891 -1.024223,5.88928 l 0,36.35989 -4.352945,0 -1.024223,0 -1.280278,0 -3.328723,0 -1.024222,0 -4.352946,0 -0.768167,0 -3.072667,0 0,-0.76816 0,-1.28028 0,-0.76817 0,-1.02422 0,-0.76817 0,-5.12111 0,-1.79239 0,-5.12111 0,-2.04845 0,-2.04844 0,-2.04845 0,-2.04844 0,-5.12111 0,-0.76817 0,-0.76817 0,-7.93772 0,-1.79239 0,-1.53634 0,-1.79238 0,-1.53634 0,-1.28028 0,-1.53633 0,-1.02422 0,-4.609 0,-2.81662 0,-1.02422 0,-1.02422 0,-1.02422 0,-1.02423 0,-4.35294 0,-0.76817 0,-3.07267 4.352945,0 1.024223,0 1.280278,0 3.328723,0 1.024222,0 4.352946,0 0.768167,0 3.072667,0 0,6.65745 c 4.523617,-4.56624 9.644724,-7.21215 15.363338,-7.93772 z"
         style=""
         id="path5006" />
      <path
         d="m 5.5716533,577.8838 0.7681669,0 5.1211128,0 0,18.436 c -9.8581824,-1.28021 -16.9423809,1.87781 -21.2526171,9.47406 l 0,0.76817 c -0.7681949,2.00582 -1.1096029,3.96891 -1.0242229,5.88928 l 0,36.35989 -4.352945,0 -1.024223,0 -1.280278,0 -3.328723,0 -1.024222,0 -4.352946,0 -0.768167,0 -3.072667,0 0,-0.76816 0,-1.28028 0,-0.76817 0,-1.02422 0,-0.76817 0,-5.12111 0,-1.79239 0,-5.12111 0,-2.04845 0,-2.04844 0,-2.04845 0,-2.04844 0,-5.12111 0,-0.76817 0,-0.76817 0,-7.93772 0,-1.79239 0,-1.53634 0,-1.79238 0,-1.53634 0,-1.28028 0,-1.53633 0,-1.02422 0,-4.609 0,-2.81662 0,-1.02422 0,-1.02422 0,-1.02422 0,-1.02423 0,-4.35294 0,-0.76817 0,-3.07267 4.352945,0 1.024223,0 1.280278,0 3.328723,0 1.024222,0 4.352946,0 0.768167,0 3.072667,0 0,6.65745 c 4.5236171,-4.56624 9.6447244,-7.21215 15.3633378,-7.93772 z"
         style=""
         id="path5008" />
      <path
         d="m 52.173745,576.09141 c 11.693162,-0.76808 21.423266,2.13388 29.190341,8.70589 l 0.256055,0.51211 c 0.682753,0.85359 1.194864,1.70711 1.536334,2.56056 0.896131,1.32302 1.493593,2.51795 1.792389,3.58477 l 0,1.02423 c 0.512046,1.66443 0.768101,3.11541 0.768167,4.35294 l 0,25.09345 c -0.170769,4.22496 -6.6e-5,7.72438 0.512112,10.49828 2.091052,2.1765 4.480902,3.54213 7.169557,4.09689 l -0.512111,0.76817 -0.512112,1.28028 -0.512111,1.02422 -0.256055,0.76817 -0.256056,0.76817 -0.512111,0.76816 -1.024223,2.56056 -0.512111,0.76817 -0.256056,0.76816 -0.256055,0.76817 -0.256056,0.51211 -1.792389,3.84083 c -7.596376,0.0427 -13.314946,-2.34716 -17.155727,-7.16955 -7.297628,7.25492 -16.344917,9.04731 -27.141896,5.37717 -9.943506,-2.73125 -15.747428,-8.79123 -17.411782,-18.17995 0.08535,-13.78429 6.572082,-21.80735 19.460227,-24.06923 0.68279,-0.42671 1.365604,-0.68276 2.048445,-0.76817 l 0.768167,0 c 0.256028,-0.17065 0.512083,-0.256 0.768167,-0.25606 l 0.768167,-0.25605 4.609001,-0.76817 2.048445,-0.25605 0.768167,-0.25606 4.352945,-0.25605 c 2.304458,-0.34135 4.182197,-0.42671 5.633224,-0.25606 0.640092,-9.51667 -4.566367,-12.76003 -15.619393,-9.73011 l -0.768167,0.25605 -2.048445,0.25606 -1.792389,0.76816 -0.768167,0.25606 -2.560556,0.76817 c -1.322976,0.89626 -2.517901,1.49372 -3.584779,1.79239 -1.451,1.10963 -2.90198,1.8778 -4.352946,2.3045 l -1.792389,-3.32873 -0.512111,-0.25605 -0.256056,-0.76817 -0.512111,-0.51211 -0.256056,-0.76817 c -1.109585,-1.28021 -1.877751,-2.47513 -2.3045,-3.58478 -0.682824,-0.64006 -1.109583,-1.32288 -1.280279,-2.04844 -1.109581,-1.06682 -1.792395,-2.1764 -2.048445,-3.32872 l 0.512112,-0.25606 0.768167,-0.51211 0.512111,-0.25606 c 1.152241,-0.76808 2.176463,-1.36555 3.072667,-1.79239 0.682804,-0.46935 1.365618,-0.72541 2.048445,-0.76816 l 0.512111,-0.51211 c 1.578995,-0.72541 2.944624,-1.23752 4.09689,-1.53634 l 0.512112,-0.51211 0.768167,0 c 0.810823,-0.51203 1.493637,-0.85343 2.048445,-1.02422 l 0.768166,0 c 1.152228,-0.59738 2.261801,-0.93879 3.328724,-1.02422 2.347149,-0.98146 4.566295,-1.49358 6.657446,-1.53634 l 0.768167,-0.25605 z m 12.29067,42.24917 -0.768167,0 c -1.024266,0.29878 -1.877783,0.46948 -2.560557,0.51212 l -0.768166,0 c -0.256096,0.17074 -0.512152,0.2561 -0.768167,0.25605 l -1.024223,0.25606 -0.768167,0 -1.024222,0.25605 -1.536334,0.25606 c -0.256091,0.17074 -0.512146,0.2561 -0.768167,0.25605 l -1.024222,0.25606 -0.768167,0.25606 c -2.389883,0.5975 -4.267622,1.19496 -5.633224,1.79238 -1.792415,2.3899 -2.304525,4.8651 -1.536334,7.42562 4.267564,5.97466 10.412893,6.99888 18.436005,3.07267 l 2.048445,-3.07267 0.256056,-1.02422 0,-1.02423 0,-0.76816 0,-1.28028 0,-0.76817 0,-1.02422 0,-0.76817 0,-5.12111 -0.768167,0 z"
         style=""
         id="path5010" />
      <path
         d="m 155.62023,551.25401 1.02422,0 1.28028,0 3.32872,0 1.02422,0 4.35295,0 0.76817,0 3.07266,0 0,97.55719 -4.35294,0 -1.02422,0 -1.28028,0 -3.32873,0 -1.02422,0 -4.35294,0 -0.76817,0 -3.07267,0 0,-4.35294 c -4.8651,3.7555 -9.98621,5.80394 -15.36334,6.14533 -11.52253,0.93889 -20.48446,-2.64589 -26.88584,-10.75433 -7.55364,-11.05304 -9.943491,-23.25834 -7.16955,-36.61596 2.51787,-13.01609 9.34601,-21.46591 20.48445,-25.3495 10.96768,-3.24329 20.61243,-1.87766 28.93428,4.09689 l 0,-1.53634 0,-3.32872 0,-1.02422 0,-4.35295 0,-0.76817 0,-3.07266 0,-2.81661 0,-1.28028 0,-3.32873 0,-1.02422 0,-4.35294 0,-0.76817 0,-3.07267 z m -22.02079,41.99312 c -7.25493,1.96316 -11.35182,6.31611 -12.29067,13.05884 -1.6217,6.91355 -1.19495,13.22958 1.28028,18.94812 2.4325,4.86509 6.10263,7.59634 11.01039,8.19378 6.91346,0.42678 12.20527,-2.04842 15.87545,-7.42562 0.42671,-1.32291 0.85347,-2.43249 1.28028,-3.32872 l 0,-0.76817 0.25606,-1.28027 0,-1.02423 0,-1.28028 0,-3.32872 0,-1.02422 0,-4.35295 0,-0.76816 0,-3.07267 c -2.64596,-9.00456 -8.44988,-13.1868 -17.41179,-12.54673 z"
         style=""
         id="path5012" />
      <path
         d="m 211.18431,576.85957 c 13.05879,-0.76808 23.89847,2.73135 32.51907,10.49828 l -0.76817,0.76817 -0.76817,0.76817 c -0.55485,0.76824 -1.06696,1.3657 -1.53633,1.79239 l -1.02422,1.02422 -0.76817,0.76817 c -0.76823,1.02429 -1.53639,1.79245 -2.3045,2.3045 l -0.25606,0.51211 -0.51211,0.76817 -0.51211,0.25605 -3.32872,3.84084 c -11.13846,-9.26061 -19.75899,-10.19948 -25.86162,-2.81662 -0.0427,1.96316 0.38406,3.6702 1.28028,5.12112 l 1.02422,0.25605 0.76817,0.51211 0.76816,0 0.76817,0.25606 2.04845,0.25605 4.09689,1.02423 c 9.34598,0.0854 16.94229,2.98737 22.78895,8.70589 4.90766,7.29763 5.93189,14.63788 3.07266,22.02078 -2.81667,6.40141 -7.16961,10.669 -13.05883,12.80278 -19.16153,5.41986 -35.20767,2.00578 -48.13846,-10.24222 0.81084,-1.06687 1.57901,-1.92039 2.3045,-2.56056 l 1.02422,-0.51211 c 1.0669,-1.45095 2.26182,-2.56053 3.58478,-3.32872 l 0.76817,-1.02423 0.51211,-0.51211 0.51211,-0.51211 0.51211,-0.51211 0.51211,-0.25605 0.51211,-0.25606 c 1.23759,-1.57897 2.43252,-2.7739 3.58478,-3.58478 8.53517,8.40719 17.1557,11.30915 25.86162,8.70589 l 0.25606,-0.51211 c 1.19488,-0.76814 2.13375,-1.70701 2.81661,-2.81661 0.17066,-2.6032 -0.68286,-4.56629 -2.56056,-5.88928 l -0.76816,0 -0.51212,-0.51211 -0.76816,0 -0.76817,-0.25606 -0.51211,-0.51211 c -2.60327,-0.42672 -4.73706,-0.93883 -6.40139,-1.53633 -15.06462,-0.68278 -23.51445,-7.34021 -25.34951,-19.97234 0.21338,-15.19256 8.40715,-23.47168 24.58134,-24.8374 z"
         style=""
         id="path5014" />
      <path
         d="m 283.39198,550.99796 c 0.34137,0.38419 0.51207,0.81095 0.51211,1.28027 l 0,26.11768 1.02422,0 2.81661,0 1.28028,0 3.32872,0 1.02423,0 4.35294,0 2.04845,0 1.79239,0 0,16.1315 -1.02423,0 -2.81661,0 -1.28028,0 -3.32872,0 -1.02422,0 -4.35295,0 -0.76817,0 -3.07266,0 0,34.82357 0.51211,1.53633 c 3.28601,3.32875 8.49247,3.67016 15.61939,1.02422 l 0.25606,1.02423 1.28028,4.09689 0.25605,0.76816 0.25606,2.04845 0.76816,1.79239 0,0.76816 c 0.38403,1.06692 0.64009,2.00579 0.76817,2.81662 l 0.76817,2.56055 c -10.62636,3.32874 -20.69787,4.01155 -30.21457,2.04845 -2.90198,-1.45097 -5.20648,-3.15801 -6.9135,-5.12112 -1.23762,-2.21912 -2.09113,-4.09686 -2.56055,-5.63322 l 0,-1.79239 c -0.29875,-0.93884 -0.3841,-1.79236 -0.25606,-2.56056 l 0,-1.02422 0,-1.02422 0,-0.76817 0,-4.609 0,-3.32872 0,-1.02422 0,-4.35295 0,-0.76817 0,-3.07266 0,-3.32873 0,-1.02422 0,-4.609 0,-1.02422 0,-1.02423 0,-1.02422 0,-4.35294 0,-0.76817 0,-3.07267 -1.02422,0 -1.02422,0 -1.02423,0 -4.35294,0 -0.76817,0 -3.07267,0 0,-1.28028 0,-1.02422 0,-1.28028 0,-3.32872 0,-1.02422 0,-4.35295 0,-0.76817 0,-3.07266 1.02423,0 1.02422,0 1.02422,0 4.35295,0 2.04844,0 1.79239,0 0,-4.35295 0,-1.02422 0,-4.35295 0,-2.81661 0,-1.02422 0,-4.35295 0,-0.76816 0,-3.07267 1.02422,-0.25606 0.51211,-0.25605 2.3045,-0.51211 c 0.98153,-0.42665 1.83505,-0.68271 2.56056,-0.76817 l 3.32872,-1.02422 1.28028,-0.25606 2.56056,-1.02422 c 2.17644,-0.42665 3.96883,-0.93876 5.37717,-1.53633 z"
         style=""
         id="path5016" />
      <path
         d="m 352.27093,577.8838 0.76817,0 5.12111,0 0,18.436 c -9.85818,-1.28021 -16.94238,1.87781 -21.25261,9.47406 l 0,0.76817 c -0.7682,2.00582 -1.10961,3.96891 -1.02423,5.88928 l 0,36.35989 -4.35294,0 -1.02422,0 -1.28028,0 -3.32873,0 -1.02422,0 -4.35294,0 -0.76817,0 -3.07267,0 0,-0.76816 0,-1.28028 0,-0.76817 0,-1.02422 0,-0.76817 0,-5.12111 0,-1.79239 0,-5.12111 0,-2.04845 0,-2.04844 0,-2.04845 0,-2.04844 0,-5.12111 0,-0.76817 0,-0.76817 0,-7.93772 0,-1.79239 0,-1.53634 0,-1.79238 0,-1.53634 0,-1.28028 0,-1.53633 0,-1.02422 0,-4.609 0,-2.81662 0,-1.02422 0,-1.02422 0,-1.02422 0,-1.02423 0,-4.35294 0,-0.76817 0,-3.07267 4.35295,0 1.02422,0 1.28028,0 3.32872,0 1.02422,0 4.35295,0 0.76817,0 3.07266,0 0,6.65745 c 4.52362,-4.56624 9.64473,-7.21215 15.36334,-7.93772 z"
         style=""
         id="path5018" />
      <path
         d="m 398.87309,576.09141 c 11.69316,-0.76808 21.42326,2.13388 29.19034,8.70589 l 0.25605,0.51211 c 0.68275,0.85359 1.19487,1.70711 1.53634,2.56056 0.89613,1.32302 1.49359,2.51795 1.79239,3.58477 l 0,1.02423 c 0.51204,1.66443 0.7681,3.11541 0.76816,4.35294 l 0,25.09345 c -0.17077,4.22496 -6e-5,7.72438 0.51211,10.49828 2.09106,2.1765 4.48091,3.54213 7.16956,4.09689 l -0.51211,0.76817 -0.51211,1.28028 -0.51211,1.02422 -0.25606,0.76817 -0.25605,0.76817 -0.51212,0.76816 -1.02422,2.56056 -0.51211,0.76817 -0.25605,0.76816 -0.25606,0.76817 -0.25606,0.51211 -1.79239,3.84083 c -7.59637,0.0427 -13.31494,-2.34716 -17.15572,-7.16955 -7.29763,7.25492 -16.34492,9.04731 -27.1419,5.37717 -9.9435,-2.73125 -15.74743,-8.79123 -17.41178,-18.17995 0.0853,-13.78429 6.57208,-21.80735 19.46023,-24.06923 0.68279,-0.42671 1.3656,-0.68276 2.04844,-0.76817 l 0.76817,0 c 0.25603,-0.17065 0.51208,-0.256 0.76817,-0.25606 l 0.76816,-0.25605 4.609,-0.76817 2.04845,-0.25605 0.76817,-0.25606 4.35294,-0.25605 c 2.30446,-0.34135 4.1822,-0.42671 5.63322,-0.25606 0.6401,-9.51667 -4.56636,-12.76003 -15.61939,-9.73011 l -0.76817,0.25605 -2.04844,0.25606 -1.79239,0.76816 -0.76817,0.25606 -2.56055,0.76817 c -1.32298,0.89626 -2.5179,1.49372 -3.58478,1.79239 -1.451,1.10963 -2.90198,1.8778 -4.35295,2.3045 l -1.79239,-3.32873 -0.51211,-0.25605 -0.25605,-0.76817 -0.51211,-0.51211 -0.25606,-0.76817 c -1.10958,-1.28021 -1.87775,-2.47513 -2.3045,-3.58478 -0.68282,-0.64006 -1.10958,-1.32288 -1.28028,-2.04844 -1.10958,-1.06682 -1.79239,-2.1764 -2.04844,-3.32872 l 0.51211,-0.25606 0.76816,-0.51211 0.51212,-0.25606 c 1.15224,-0.76808 2.17646,-1.36555 3.07266,-1.79239 0.68281,-0.46935 1.36562,-0.72541 2.04845,-0.76816 l 0.51211,-0.51211 c 1.57899,-0.72541 2.94462,-1.23752 4.09689,-1.53634 l 0.51211,-0.51211 0.76817,0 c 0.81082,-0.51203 1.49364,-0.85343 2.04844,-1.02422 l 0.76817,0 c 1.15223,-0.59738 2.2618,-0.93879 3.32872,-1.02422 2.34715,-0.98146 4.5663,-1.49358 6.65745,-1.53634 l 0.76817,-0.25605 z m 12.29067,42.24917 -0.76817,0 c -1.02427,0.29878 -1.87778,0.46948 -2.56056,0.51212 l -0.76816,0 c -0.2561,0.17074 -0.51216,0.2561 -0.76817,0.25605 l -1.02422,0.25606 -0.76817,0 -1.02422,0.25605 -1.53634,0.25606 c -0.25609,0.17074 -0.51214,0.2561 -0.76816,0.25605 l -1.02423,0.25606 -0.76816,0.25606 c -2.38989,0.5975 -4.26763,1.19496 -5.63323,1.79238 -1.79241,2.3899 -2.30452,4.8651 -1.53633,7.42562 4.26756,5.97466 10.41289,6.99888 18.436,3.07267 l 2.04845,-3.07267 0.25605,-1.02422 0,-1.02423 0,-0.76816 0,-1.28028 0,-0.76817 0,-1.02422 0,-0.76817 0,-5.12111 -0.76816,0 z"
         style=""
         id="path5020" />
      <path
         d="m 483.88356,550.99796 c 17.88116,-2.13369 30.08647,3.15812 36.61596,15.87544 5.12103,12.12005 2.64583,21.76481 -7.42562,28.93429 12.33327,6.18807 16.77156,16.51564 13.3149,30.98273 -4.31035,15.23533 -15.32073,22.66094 -33.03118,22.27684 l 0,-4.35295 0,-1.02422 0,-1.28028 0,-3.32872 0,-1.02422 0,-4.35295 0,-0.76816 0,-3.07267 c 8.2364,-1.32292 12.16258,-6.01727 11.77856,-14.08306 -2.0485,-6.05993 -5.97469,-9.38865 -11.77856,-9.98617 l 0,-3.32872 0,-1.02423 0,-4.35294 0,-0.76817 0,-3.07267 0,-2.81661 c 6.35866,-1.79231 9.34597,-5.80385 8.96195,-12.03461 -2.09118,-5.50511 -5.84666,-8.23637 -11.26645,-8.19378 -5.59059,0.0428 -9.43142,2.43262 -11.5225,7.16955 l -0.25606,1.02423 0.25606,1.53633 0,0.76817 c -0.17074,2.30458 -0.25609,4.18232 -0.25606,5.63322 l 0,62.73363 -1.28028,0 -1.53633,0 -1.28028,0 -1.02422,0 -4.609,0 -1.02422,0 -1.02423,0 -1.02422,0 -4.35294,0 -0.76817,0 -3.07267,0 0,-0.76817 0,-5.12111 0,-0.76817 0,-1.02422 0,-4.609 0,-1.79239 0,-1.79239 0,-1.02422 0,-1.28028 0,-1.02422 0,-1.28028 0,-3.32872 0,-1.02423 0,-4.35294 0,-0.76817 0,-3.07267 0,-5.12111 0,-0.76817 0,-0.76816 0,-7.93773 0,-3.32872 0,-1.79239 0,-1.02422 0,-1.28028 0,-1.02422 0,-1.28028 0,-2.56056 0,-1.28027 0,-1.28028 0,-1.28028 0,-0.76817 0,-0.76816 0,-1.28028 c -0.0427,-0.98147 0.0427,-1.83499 0.25606,-2.56056 -0.29875,-1.87766 -0.29875,-3.58469 0,-5.12111 l 0,-0.76817 0.25605,-0.76816 1.28028,-4.86506 c 4.56631,-9.00452 11.3091,-14.63774 20.22839,-16.89967 1.45095,-0.0852 2.64587,-0.25595 3.58478,-0.51211 z"
         style=""
         id="path5022" />
      <path
         d="m 564.54105,577.37168 c 20.86847,-0.29864 32.73237,9.85822 35.59173,30.47062 l 0.76816,3.32873 0,1.79239 c 0.34134,3.03003 0.42669,5.50524 0.25606,7.42561 l -0.76817,-0.25606 -0.76816,0 -5.12112,0 -0.76816,0 -0.76817,0 -7.93772,0 -1.79239,0 -1.53634,0 -1.79239,0 -1.53633,0 -1.28028,0 -1.53633,0 -1.02422,0 -4.60901,0 -2.81661,0 -1.02422,0 -1.02422,0 -1.02423,0 -1.02422,0 -4.35294,0 -0.76817,0 -3.07267,0 c 0.93885,7.42565 4.77968,11.86395 11.52251,13.3149 8.40711,1.2803 15.40596,-0.85349 20.99656,-6.40139 l 2.04844,2.3045 c 0.81079,0.55482 1.40825,1.15228 1.79239,1.79239 l 0.51211,0.25605 0.25606,0.51211 c 0.85345,0.64017 1.53627,1.23763 2.04844,1.79239 l 0.51211,0.76817 c 0.29867,0.17073 0.46938,0.34143 0.51211,0.51211 l 0.51212,0.25606 0.51211,0.51211 0.25605,0.51211 0.51211,0.25605 0.25606,0.51212 c 0.85345,0.64016 1.53627,1.23762 2.04844,1.79238 -8.06581,10.24224 -19.16154,14.08307 -33.28723,11.52251 -17.28377,-2.94463 -27.09922,-13.4429 -29.44639,-31.49484 -1.53634,-22.87424 7.85236,-36.70123 28.16612,-41.48102 z m 4.35294,15.87545 c -7.8524,1.23767 -12.4614,5.41991 -13.827,12.54673 l 1.53633,0 1.79239,0 3.32872,0 7.93773,0 3.58478,0 0.76816,0 1.28028,0 0.76817,0 1.02422,0 0.76817,0 5.12111,0 c -1.92047,-7.6816 -6.61481,-11.86384 -14.08306,-12.54673 z"
         style=""
         id="path5024" />
    </g>
  </g>
</svg>
