<?xml version="1.0" encoding="UTF-8" standalone="no"?>
<!-- Created with Inkscape (http://www.inkscape.org/) -->
<svg
   xmlns:svg="http://www.w3.org/2000/svg"
   xmlns="http://www.w3.org/2000/svg"
   version="1.0"
   width="959.99994"
   height="960"
   id="svg3752">
  <defs
     id="defs3754" />
  <g
     transform="translate(-608.1986,652.9798)"
     id="layer1">
    <path
       d="M -285.71429 437.14285 A 207.14285 242.85715 0 1 1  -700,437.14285 A 207.14285 242.85715 0 1 1  -285.71429 437.14285 z"
       transform="matrix(2.22069,0,0,1.894118,2182.681,-1000.98)"
       style="opacity:1;fill:white;fill-opacity:1;fill-rule:evenodd;stroke:none;stroke-width:0.25;stroke-linejoin:round;stroke-miterlimit:4;stroke-dasharray:none;stroke-opacity:1"
       id="path3767" />
    <path
       d="M 983.90561,-62.307537 L 1023.8612,-62.307537 L 1023.8612,-22.351394 L 983.90561,18.823515 L 983.90561,-62.307537"
       style="fill:black;fill-rule:nonzero;stroke:none"
       id="path359" />
    <path
       d="M 1104.354,-301.36576 C 1072.0987,-301.36576 1043.8043,-278.25075 1043.8043,-240.4136 L 1043.8043,-181.31729 C 1043.8043,-143.46629 1072.0987,-120.36513 1104.354,-120.36513 C 1111.2648,-120.36513 1118.328,-122.78881 1124.2833,-126.27891 L 1124.2833,-73.899665 C 1124.2833,-62.349085 1115.9044,-53.582278 1104.354,-53.582278 C 1092.8036,-53.582278 1084.4385,-62.349085 1084.4385,-73.899665 L 1043.8043,-73.899665 C 1043.8043,-36.048664 1072.0987,-12.947504 1104.354,-12.947504 C 1136.6231,-12.947504 1164.9036,-36.048664 1164.9036,-73.899665 L 1164.9036,-240.4136 C 1164.9036,-278.25075 1136.6231,-301.36576 1104.354,-301.36576 z M 1104.354,-160.9999 C 1092.8036,-160.9999 1084.4385,-169.76671 1084.4385,-181.31729 L 1084.4385,-240.4136 C 1084.4385,-251.96418 1092.8036,-260.73099 1104.354,-260.73099 C 1115.9044,-260.73099 1124.2833,-251.96418 1124.2833,-240.4136 L 1124.2833,-181.31729 C 1124.2833,-169.76671 1115.9044,-160.9999 1104.354,-160.9999"
       style="fill:black;fill-rule:nonzero;stroke:none"
       id="path361" />
    <path
       d="M 1088.1917,-396.47108 L 1209.111,-517.39208 C 1209.111,-517.39208 1147.0794,-538.47119 1088.1917,-538.47119 C 1029.3178,-538.47119 967.27246,-517.39208 967.27246,-517.39208 L 1088.1917,-396.47108"
       style="fill:black;fill-rule:nonzero;stroke:none"
       id="path363" />
    <path
       d="M 1088.4133,50.372941 L 1209.3326,171.29394 C 1209.3326,171.29394 1147.2872,192.37306 1088.4133,192.37306 C 1029.5394,192.37306 967.49405,171.29394 967.49405,171.29394 L 1088.4133,50.372941"
       style="fill:black;fill-rule:nonzero;stroke:none"
       id="path365" />
    <path
       d="M 1088.1917,307.02018 C 823.11388,307.02018 608.19864,92.115685 608.19864,-172.97982 C 608.19864,-438.07532 823.11388,-652.97982 1088.1917,-652.97982 C 1353.2834,-652.97982 1568.1986,-438.07532 1568.1986,-172.97982 C 1568.1986,92.115685 1353.2834,307.02018 1088.1917,307.02018 z M 1444.1079,-172.97982 C 1444.1079,-369.54742 1284.7565,-528.90111 1088.1917,-528.90111 C 891.62695,-528.90111 732.27556,-369.54742 732.27556,-172.97982 C 732.27556,23.587783 891.62695,182.94147 1088.1917,182.94147 C 1284.7565,182.94147 1444.1079,23.587783 1444.1079,-172.97982"
       style="fill:#ee1c23;fill-rule:nonzero;stroke:none"
       id="path367" />
    <path
       d="M 1190.5666,-194.94531 L 1226.395,-194.94531 L 1226.395,-177.73024 L 1227.1014,-177.73024 C 1234.4693,-188.97613 1244.3162,-197.05045 1260.8247,-197.05045 C 1276.2806,-197.05045 1286.46,-187.92356 1292.7891,-179.1429 C 1301.5697,-188.97613 1311.0565,-197.05045 1330.0302,-197.05045 C 1347.9375,-197.05045 1369.0163,-185.45832 1369.0163,-153.49341 L 1369.0163,-16.839246 L 1333.1879,-16.839246 L 1333.1879,-140.14238 C 1333.1879,-153.14717 1326.8587,-161.2215 1315.6268,-161.2215 C 1302.276,-161.2215 1297.7057,-152.44084 1297.7057,-136.62458 L 1297.7057,-16.839246 L 1261.8772,-16.839246 L 1261.8772,-140.14238 C 1261.8772,-153.14717 1255.5481,-161.2215 1244.3162,-161.2215 C 1230.9653,-161.2215 1226.395,-152.44084 1226.395,-136.62458 L 1226.395,-16.839246 L 1190.5666,-16.839246 L 1190.5666,-194.94531"
       style="fill:black;fill-rule:nonzero;stroke:none"
       id="path369" />
    <path
       d="M 860.38266,-65.562196 L 949.50366,-259.80306 L 949.43441,-259.95541 C 953.14606,-268.65297 955.20962,-278.2092 955.20962,-288.26403 C 955.20962,-328.12322 922.88508,-360.44823 883.02646,-360.44823 C 843.15399,-360.44823 810.8433,-328.12322 810.8433,-288.26403 L 858.62379,-288.26403 C 858.62379,-301.7397 869.55098,-312.66705 883.02646,-312.66705 C 896.50194,-312.66705 907.42913,-301.7397 907.42913,-288.26403 C 907.42913,-288.26403 909.54809,-280.99298 905.9057,-271.54754 L 811.93741,-65.562196 L 811.93741,-17.130088 L 958.21494,-17.130088 L 958.21494,-65.562196 L 860.38266,-65.562196"
       style="fill:black;fill-rule:nonzero;stroke:none"
       id="path371" />
  </g>
</svg>
