<?xml version="1.0" encoding="UTF-8" standalone="no"?>
<svg
   id="svg"
   width="959.99988"
   height="1200"
   viewBox="0 0 959.99988 1200"
   version="1.1"
   sodipodi:docname="Hinweiszeichen_9e_new.svg"
   inkscape:version="1.1 (c68e22c387, 2021-05-23)"
   xmlns:inkscape="http://www.inkscape.org/namespaces/inkscape"
   xmlns:sodipodi="http://sodipodi.sourceforge.net/DTD/sodipodi-0.dtd"
   xmlns="http://www.w3.org/2000/svg"
   xmlns:svg="http://www.w3.org/2000/svg">
  <defs
     id="defs10" />
  <sodipodi:namedview
     id="namedview8"
     pagecolor="#ffffff"
     bordercolor="#666666"
     borderopacity="1.0"
     inkscape:pageshadow="2"
     inkscape:pageopacity="0.0"
     inkscape:pagecheckerboard="0"
     showgrid="false"
     inkscape:zoom="0.26"
     inkscape:cx="601.92308"
     inkscape:cy="648.07692"
     inkscape:window-width="1366"
     inkscape:window-height="705"
     inkscape:window-x="-8"
     inkscape:window-y="-8"
     inkscape:window-maximized="1"
     inkscape:current-layer="svg" />
  <path
     d="m 935.5939,1200.0001 c 6.519,0 12.646,-2.53 17.256,-7.13 4.609,-4.58 7.15,-10.69 7.15,-17.19 V 24.31628 c 0,-6.4973 -2.541,-12.605 -7.15,-17.18865 C 948.2399,2.53252 942.1129,5e-5 935.5939,5e-5 H 24.4054 C 10.9439,5e-5 0,10.90918 0,24.31628 V 1175.6801 c 0,6.5 2.529,12.61 7.1503,17.19 4.6098,4.6 10.737,7.13 17.2551,7.13 z"
     style="fill:#000000;fill-rule:nonzero;stroke:none"
     id="path14525" />
  <path
     d="m 24.4054,1191.9801 c -4.3684,0 -8.4723,-1.7 -11.5647,-4.78 -3.0923,-3.07 -4.7937,-7.16 -4.7937,-11.52 V 24.31628 c 0,-4.343 1.7014,-8.4453 4.7937,-11.5164 3.0924,-3.08249 7.1963,-4.77844 11.5647,-4.77844 h 911.1885 c 4.369,0 8.473,1.69595 11.565,4.77844 3.093,3.0711 4.794,7.1734 4.794,11.5164 V 1175.6801 c 0,8.99 -7.334,16.3 -16.359,16.3 H 24.4054"
     style="fill:#ffffff;fill-rule:nonzero;stroke:none"
     id="path271" />
  <path
     id="path153"
     style="fill:#000000;fill-rule:nonzero;stroke:none"
     d="m 687.04728,770.42547 c 0,23.39089 20.2937,42.35358 45.33181,42.35358 25.02486,0 45.32512,-18.96269 45.32512,-42.35358 V 648.05233 c 0,-23.39087 -20.30026,-42.34511 -45.32512,-42.34511 -25.03811,0 -45.33181,18.95424 -45.33181,42.34511 z m 60.438,0 c 0,7.79718 -6.76456,14.11484 -15.10619,14.11484 -8.34817,0 -15.11289,-6.31766 -15.11289,-14.11484 V 648.05233 c 0,-7.79719 6.76472,-14.11482 15.11289,-14.11482 8.34163,0 15.10619,6.31763 15.10619,14.11482 v 122.37314" />
  <path
     id="path351"
     style="fill:#000000;fill-rule:nonzero;stroke:#000000;stroke-width:2.1;stroke-miterlimit:4;stroke-dasharray:none;stroke-opacity:1"
     d="m 604.70311,778.06206 51.45064,-112.18106 -0.0372,-0.084 c 2.14256,-5.01948 3.3255,-10.54622 3.3255,-16.34867 0,-23.02432 -18.65219,-41.69391 -41.66538,-41.69391 -23.01171,0 -41.66551,18.66959 -41.66551,41.69391 h 27.57804 c 0,-7.7856 6.30628,-14.09516 14.08747,-14.09516 7.78105,0 14.08764,6.30956 14.08764,14.09516 0,0 1.22164,4.19695 -0.87863,9.65004 l -54.23832,118.96388 v 27.9761 h 84.43477 v -27.9761 h -56.47958" />
  <g
     id="g4560"
     transform="matrix(0.67932916,0,0,0.67932916,-580.75179,648.24357)"
     style="fill:#000000">
    <path
       d="m 1324.416,-263.3421 c 27.312,0 49.446,-23.75 49.446,-53.058 0,-29.297 -22.134,-53.047 -49.446,-53.047 -27.312,0 -49.446,23.75 -49.446,53.047 0,29.308 22.134,53.058 49.446,53.058"
       style="fill:#000000;fill-rule:nonzero;stroke:none"
       id="path11015" />
    <path
       d="m 1252.542,-61.3091 v 45.956 l -84.5975,132.23501 c 0,0 -8.7406,11.24969 -2.6201,20.62819 6.1205,9.3785 26.2218,43.1389 26.2218,43.1389 0,0 7.0009,6.5604 13.1109,0 6.1205,-6.5605 0.8804,-12.1853 0.8804,-12.1853 l -5.2507,-13.1322 97.0272,-149.4816 v 149.4816 c 0,15.939 7.001,17.8101 7.001,17.8101 l 42.833,30.9536 11.361,-13.1321 -16.612,-20.6282 v -231.644 h -89.355"
       style="fill:#000000;fill-rule:nonzero;stroke:none"
       id="path11017" />
    <path
       d="m 1341.897,-69.7521 v -43.962 l 42.75,27.087 c 0,0 24.555,8.443 35.046,-3.754 10.491,-12.196 13.111,-15.939 13.111,-15.939 0,0 4.999,-6.819 -3.584,-12.365 -6.467,-4.193 -60.912,-38.641 -87.323,-55.347 v -45.765 c 0,-27.2 -21.851,-33.76 -21.851,-33.76 l -25.352,-8.443 c -10.491,-3.754 -16.612,5.624 -16.612,5.624 0,0 -95.2764,136.924 -108.3873,155.681 -13.1109,18.757 -3.49,38.45 -3.49,38.45 l 14.8507,24.382 71.4866,-100.391 v 68.502 h 89.355"
       style="fill:#000000;fill-rule:nonzero;stroke:none"
       id="path11019" />
  </g>
  <path
     id="path11037"
     style="fill:#000000;fill-rule:nonzero;stroke:none"
     d="m 318.54629,312.41 c -21.433,0 -67.148,-9.807 -73.101,-11.103 v 46.926 c 0,3.529 -2.662,6.38 -5.942,6.38 h -31.378 c -3.28,0 -5.943,-2.851 -5.943,-6.38 v -45.449 c -7.294,-4.137 -10.648,-9.142 -14.42,-21.316 -8.469,-27.268 0,-49.936 3.93,-57.68 2.515,-4.96 15.794,-8.759 25.016,-10.844 l 37.488,-70.745 h 130.009 l 37.499,70.745 c 9.223,2.085 22.491,5.884 25.006,10.844 3.941,7.744 12.409,30.412 3.941,57.68 -3.784,12.174 -7.127,17.179 -14.421,21.316 v 45.449 c 0,3.529 -2.662,6.38 -5.953,6.38 h -31.378 c -3.281,0 -5.943,-2.851 -5.943,-6.38 v -46.926 c -5.942,1.296 -51.668,11.103 -73.1,11.103 z m 90.11,-101.315 -30.55,-57.646 h -117.799 l -30.561,57.646 z m -190.742,59.901 c 11.266,0 20.394,-9.796 20.394,-21.891 0,-12.084 -9.128,-21.879 -20.394,-21.879 -11.267,0 -20.395,9.795 -20.395,21.879 0,12.095 9.128,21.891 20.395,21.891 z m 222.979,-21.891 c 0,-12.084 -9.138,-21.879 -20.405,-21.879 -11.266,0 -20.395,9.795 -20.395,21.879 0,12.095 9.129,21.891 20.395,21.891 11.267,0 20.405,-9.796 20.405,-21.891" />
  <path
     id="path151"
     style="fill:#ee1c23;fill-rule:nonzero;stroke:none"
     d="m 439.32919,711.20006 c 0,-119.34976 103.53817,-216.10074 231.26687,-216.10074 127.72244,0 231.26476,96.75098 231.26476,216.10074 0,119.34977 -103.54232,216.10038 -231.26476,216.10038 -127.7287,0 -231.26687,-96.75061 -231.26687,-216.10038 z m 231.26687,160.24053 c 94.70468,0 171.48344,-71.74206 171.48344,-160.24053 0,-88.49848 -76.77876,-160.24089 -171.48344,-160.24089 -94.71094,0 -171.48985,71.74241 -171.48985,160.24089 0,88.49847 76.77891,160.24053 171.48985,160.24053" />
  <rect
     style="fill:#176fc1;fill-opacity:1;fill-rule:evenodd;stroke:none"
     id="rect4567"
     width="882.55017"
     height="79.792206"
     x="40.147366"
     y="34.478329" />
  <rect
     y="34.478252"
     x="40.147366"
     height="1125.4197"
     width="103.97165"
     id="rect4569"
     style="fill:#176fc1;fill-opacity:1;fill-rule:evenodd;stroke:none" />
  <rect
     style="fill:#176fc1;fill-opacity:1;fill-rule:evenodd;stroke:none"
     id="rect4571"
     width="103.97165"
     height="1125.4197"
     x="820.14734"
     y="34.478252" />
  <rect
     y="874.47827"
     x="40.147366"
     height="287.73553"
     width="882.55017"
     id="rect4573"
     style="fill:#176fc1;fill-opacity:1;fill-rule:evenodd;stroke:none" />
  <path
     id="path157"
     style="fill:#ffffff;fill-rule:nonzero;stroke:none"
     d="m 668.4816,1046.8531 v 16.1117 c 0,8.3039 5.90008,12.9721 15.53967,12.9721 12.12986,0 14.9345,-5.7355 15.54733,-11.4437 h 31.72323 c 0,10.9012 -4.66653,19.2233 -12.75841,26.2339 -8.39034,7.2645 -19.89184,11.6702 -34.51215,11.6702 -19.27133,0 -33.88379,-7.5179 -41.33925,-18.934 -4.36022,-6.7483 -5.91579,-16.0928 -5.91579,-26.7314 v -43.3224 c 0,-10.6379 1.55557,-19.98262 5.91579,-26.73135 7.45546,-11.41626 22.06792,-18.9335 41.33925,-18.9335 29.22492,0 47.25486,17.90196 47.25486,40.98835 l 0.0182,38.1201 H 668.4841 Z m 0,-22.5515 h 31.087 v -15.0445 c 0,-9.86029 -5.90792,-15.05257 -15.54733,-15.05257 -9.63959,0 -15.53967,5.19228 -15.53967,15.05257 v 15.0445" />
  <path
     id="path159"
     style="fill:#ffffff;fill-rule:nonzero;stroke:none"
     d="m 508.2392,969.90677 h 31.71538 v 6.43169 h 0.62068 c 10.99078,-9.14597 10.91222,-9.14597 25.51683,-9.14597 15.85367,0 36.9869,9.72488 36.9869,33.32641 v 100.9374 h -31.70753 v -91.0769 c 0,-9.598 -5.6016,-15.55941 -15.55536,-15.55941 -11.80783,0 -15.85368,6.48551 -15.85368,18.15521 v 88.4811 H 508.24706 V 969.90677" />
  <path
     id="path161"
     style="fill:#ffffff;fill-rule:nonzero;stroke:none"
     d="m 380.78053,1013.3464 c 0,-10.6388 1.55539,-19.98332 5.90775,-26.73139 7.46332,-11.40713 23.14438,-18.93416 42.41552,-18.93416 19.279,0 34.96795,7.51789 42.43127,18.93416 4.35236,6.74807 5.90006,16.08429 5.90006,26.72229 v 43.3314 c 0,10.638 -1.5477,19.9825 -5.90006,26.7223 -7.46332,11.4161 -23.15227,18.9425 -42.43127,18.9425 -19.27114,0 -34.9522,-7.5173 -42.41552,-18.9335 -4.35236,-6.7488 -5.90775,-16.0933 -5.90775,-26.7221 z m 31.71538,47.4746 c 0,9.8603 6.9683,15.0527 16.60789,15.0527 9.6396,0 16.6236,-5.1924 16.6236,-15.0527 v -51.636 c 0,-9.85133 -6.984,-15.04362 -16.6236,-15.04362 -9.63959,0 -16.60789,5.19229 -16.60789,15.05262 v 51.627" />
  <path
     id="path163"
     style="fill:#ffffff;fill-rule:nonzero;stroke:none"
     d="m 250.77867,1078.2891 71.5126,-136.47078 h -61.961 v -24.91313 h 96.4732 v 21.02326 l -72.7563,138.80415 h 75.9694 v 24.9138 h -109.2379 v -23.3573" />
  <path
     id="path3"
     d="m 665.05701,182.0521 c -13.68455,2.78806 -19.13437,19.10371 -9.79526,29.31538 6.83508,7.47401 17.94598,7.88671 25.37165,0.94296 12.75064,-11.92002 1.5197,-33.73981 -15.57639,-30.25834 m 20.24354,35.73128 c -8.56365,2.78806 -12.82987,8.9856 -12.94511,18.79899 l -0.0648,5.74887 -4.74638,10.99627 -4.74638,10.99627 -7.45208,1.8691 c -4.09816,1.02933 -12.68822,3.10717 -19.09116,4.62117 -12.13604,2.86724 -13.68695,3.47427 -14.90656,5.83045 l -0.73704,1.42522 -8.86615,0.0384 c -9.05582,0.0408 -12.32811,0.53506 -13.25482,2.00107 -0.82347,1.30766 0.64822,3.57265 3.22428,4.96428 6.54457,3.53666 7.30563,6.55026 4.24941,16.79553 -1.4981,5.01226 -9.93451,31.38363 -10.11217,31.59957 -0.072,0.0887 -2.46081,-0.41748 -5.30336,-1.12529 -35.26774,-8.78886 -66.59577,16.25566 -65.29214,52.1981 1.1788,32.58331 30.57418,54.84698 63.46993,48.07598 36.83306,-7.57958 52.83679,-54.70782 28.24781,-83.18344 -2.11031,-2.44494 -4.44388,-4.51079 -13.72537,-12.15996 l -1.25082,-1.03172 1.88463,-5.34098 c 1.03714,-2.93921 2.1031,-5.34337 2.36719,-5.34337 1.10676,0 14.48402,14.35777 31.67374,33.99174 14.86815,16.98508 13.91503,15.72541 13.27642,17.55852 -2.13911,6.12797 1.92544,16.60838 7.62734,19.67716 1.57492,0.84698 1.82221,1.22367 1.82221,2.76887 0,2.30098 2.19192,6.69421 3.97332,7.96107 5.87235,4.17969 11.76151,1.08931 14.7313,-7.73314 l 1.17639,-3.49347 5.74272,-0.13916 c 6.70063,-0.16315 6.05961,-0.60464 8.77492,6.0176 18.0396,44.00908 82.06411,41.45135 97.07871,-3.87737 4.15819,-12.55346 3.68763,-24.63184 -1.42367,-36.63824 -10.76278,-25.27487 -36.58098,-36.37671 -65.83232,-28.30766 -0.9027,0.24954 -1.2148,-0.11997 -2.21113,-2.6225 -0.63621,-1.60278 -2.6961,-6.0032 -4.57593,-9.7798 -1.87742,-3.77659 -3.41633,-7.23887 -3.41633,-7.69234 0,-1.37964 5.33457,-6.99654 8.89976,-9.37191 5.79073,-3.85338 7.71857,-6.7278 8.68129,-12.92536 1.04675,-6.76139 0.6002,-8.2514 -9.19986,-30.62544 -2.89056,-6.59824 -7.18079,-16.42842 -9.53598,-21.84378 -6.026,-13.8563 -8.01386,-16.66115 -13.99185,-19.74194 -3.16186,-1.62676 -10.61634,-2.12823 -14.21994,-0.95734 m 1.95183,57.85138 c 2.989,7.19088 5.37299,13.13169 5.29856,13.20368 -0.0768,0.0744 -7.68015,0.84457 -16.89682,1.71314 -22.35864,2.11144 -23.19892,2.22661 -24.9467,3.47187 -2.7033,1.9243 -4.06216,3.95655 -4.06216,6.07999 v 1.96027 H 630.1614 613.67751 l 0.77546,-2.12342 c 1.00113,-2.74968 0.98913,-9.89497 -0.0216,-12.74781 l -0.75385,-2.12344 h 3.99973 c 3.27949,0 4.25662,0.18956 5.421,1.05092 2.22555,1.64357 5.86996,1.31965 20.29636,-1.79712 11.48062,-2.48093 29.64507,-6.25273 30.11803,-6.25273 0.0936,0 1.88703,-3.59905 3.98772,-8.00187 2.0983,-4.40043 3.92771,-7.8891 4.06456,-7.75234 0.13684,0.13677 2.6961,6.13038 5.68749,13.31886 m -48.48174,34.37324 c 5.43541,0.19915 10.07376,0.57345 10.30663,0.83258 0.23528,0.25912 4.1894,9.86377 8.78933,21.34232 l 8.36438,20.86963 -0.66502,7.05892 -0.66502,7.05892 -3.25068,0.88296 c -1.7886,0.48708 -3.73084,1.04133 -4.31664,1.23087 -0.8931,0.29033 -1.74538,-0.41508 -5.25295,-4.34043 -10.27542,-11.50974 -25.95504,-28.91951 -28.71596,-31.88751 -1.66375,-1.78753 -5.68509,-6.23594 -8.94057,-9.88537 l -5.91557,-6.63663 1.37326,-3.76699 1.37565,-3.76461 8.81574,0.32392 c 4.84961,0.17755 13.26201,0.48467 18.69742,0.68142 m 50.88974,0.80379 c 0,0.13676 -2.62887,3.99493 -5.84114,8.57051 l -5.84115,8.32098 -1.15718,-1.44681 c -2.46322,-3.08318 -6.92631,-13.60438 -6.11244,-14.41536 0.49217,-0.49426 18.95191,-1.4948 18.95191,-1.02932 m 23.76791,17.46494 c 3.93732,9.59744 3.97333,8.48174 -0.37452,11.78326 -10.13857,7.69475 -17.1129,17.17223 -19.40326,26.36178 l -0.52817,2.12583 -3.48116,0.0888 c -1.91584,0.048 -3.99013,0.10557 -4.60714,0.12477 -1.30363,0.0408 -1.30123,0.44628 -0.0576,-10.21168 0.90751,-7.77873 0.49697,-6.93176 8.84935,-18.24474 13.58132,-18.39591 15.47075,-20.81446 15.90769,-20.37778 0.25209,0.25194 1.91344,4.00934 3.69483,8.34978 m 38.50162,13.4988 c 29.1481,7.86511 41.19291,39.57026 24.35131,64.09173 -16.92564,24.64863 -56.92295,21.59185 -69.83685,-5.33618 -2.94578,-6.14716 -5.409,-5.28099 20.68048,-7.27006 19.70096,-1.4996 21.67682,-2.05866 24.10163,-6.81179 2.91937,-5.71527 0.58819,-10.80192 -6.6118,-14.43695 -1.60614,-0.80859 -3.23388,-1.97468 -3.62041,-2.59371 -0.83308,-1.32924 -12.3209,-25.98028 -12.3209,-26.43856 0,-0.26633 2.84255,-1.10371 7.25281,-2.13783 2.0863,-0.49186 13.11077,0.15116 16.00373,0.93335 m -166.4282,0.21834 c 3.37072,0.49428 6.28049,1.04853 6.46775,1.23567 1.92064,1.91949 -7.41607,23.96483 -13.15878,31.06693 -5.83634,7.21728 -6.47495,8.77687 -4.5255,11.04426 3.81967,4.43642 14.33277,-9.0312 20.56764,-26.34498 2.52804,-7.02533 4.17979,-10.94349 4.60714,-10.94349 0.78026,0 5.47142,3.92296 8.03067,6.71582 20.02507,21.84377 10.10256,57.95415 -18.36371,66.84378 -6.03321,1.8835 -20.20513,1.73714 -25.5085,-0.26152 -34.66273,-13.06933 -37.8702,-59.38418 -5.25294,-75.80301 8.97178,-4.5156 15.07942,-5.31698 27.13623,-3.55346 m 142.42021,16.1501 c 3.02741,6.64864 5.58906,12.30393 5.6947,12.57026 0.11763,0.29992 -1.02275,0.3671 -3.001,0.17755 -1.75739,-0.16556 -7.69457,-0.55426 -13.1972,-0.85898 -5.50023,-0.30711 -10.94284,-0.66462 -12.09042,-0.79658 l -2.0863,-0.23993 0.78507,-2.30099 c 2.21353,-6.49027 14.65447,-20.6657 18.11643,-20.6393 0.15365,0 2.75371,5.43935 5.77872,12.08797 m -36.90749,15.30073 c 0.47056,0.29992 0.48016,1.39162 0.0408,4.8755 -0.39613,3.12396 -0.41774,5.60011 -0.072,8.15063 0.593,4.37163 0.72264,4.26846 -5.96598,4.82512 -4.05495,0.3383 -4.35985,0.29751 -4.35505,-0.57105 0.005,-1.10611 1.36365,-13.11011 1.78859,-15.8046 l 0.2953,-1.87389 3.83168,0.007 c 2.1079,0.005 4.10536,0.17996 4.43667,0.3911 m -27.53716,1.72513 c -0.15606,0.89257 -0.64102,4.43643 -1.07556,7.87232 -0.43695,3.43827 -0.9075,6.78299 -1.04675,7.43801 l -0.25689,1.18768 -1.28922,-1.18768 c -4.89763,-4.5084 -4.56632,-11.22901 0.75865,-15.28633 2.72971,-2.08264 3.27229,-2.08504 2.90977,-0.024 m 46.68834,-0.14395 c 3.71404,0.26392 12.38092,0.83737 19.25681,1.27406 15.79726,1.00773 17.75631,1.61717 17.75631,5.52093 0,4.67156 -3.21467,5.71767 -19.25681,6.27193 -6.87589,0.23754 -15.42994,0.64062 -19.00473,0.89256 -4.01413,0.28552 -6.69102,0.28312 -6.99112,-0.005 -0.56179,-0.53505 -0.69384,-12.24393 -0.15366,-13.56118 0.42255,-1.02453 -0.15365,-0.99815 8.3932,-0.3935"
     stroke="none"
     fill="#000000"
     fill-rule="evenodd"
     style="stroke-width:2.40008"
     sodipodi:nodetypes="ccccccccccccccccccccccccsscccscccccsccccscccccccsccsccccccsccscscccccccccccccccccccccccccccccscsccccccccscccscccscccccccccsccccccccccccccccccccccsscccc" />
</svg>
