<?xml version="1.0" encoding="UTF-8" standalone="no"?>
<!-- Created with Inkscape (http://www.inkscape.org/) -->
<svg
   xmlns:svg="http://www.w3.org/2000/svg"
   xmlns="http://www.w3.org/2000/svg"
   version="1.0"
   width="960"
   height="960"
   id="svg2852">
  <defs
     id="defs2854" />
  <g
     transform="translate(-573.9134,238.6941)"
     id="layer1">
    <path
       d="M 340 462.85715 A 367.14285 380 0 1 1  -394.28571,462.85715 A 367.14285 380 0 1 1  340 462.85715 z"
       transform="matrix(1.252918,0,0,1.210526,1087.921,-318.9946)"
       style="opacity:1;fill:white;fill-opacity:1;fill-rule:evenodd;stroke:none;stroke-width:0.25;stroke-linejoin:round;stroke-miterlimit:4;stroke-dasharray:none;stroke-opacity:1"
       id="path2865" />
    <path
       d="M 1103.5228,336.28657 L 1132.4962,336.28657 L 1132.4962,350.20543 L 1133.064,350.20543 C 1139.0332,341.12008 1146.9829,334.58307 1160.3339,334.58307 C 1172.8262,334.58307 1181.0668,341.96491 1186.1773,349.06976 C 1193.2683,341.12008 1200.941,334.58307 1216.2725,334.58307 C 1230.7592,334.58307 1247.8081,343.95926 1247.8081,369.80264 L 1247.8081,480.28103 L 1218.8347,480.28103 L 1218.8347,380.59149 C 1218.8347,370.09348 1213.7242,363.55646 1204.6388,363.55646 C 1193.8361,363.55646 1190.1521,370.66132 1190.1521,383.43066 L 1190.1521,480.28103 L 1161.1787,480.28103 L 1161.1787,380.59149 C 1161.1787,370.09348 1156.0682,363.55646 1146.9829,363.55646 C 1136.194,363.55646 1132.4962,370.66132 1132.4962,383.43066 L 1132.4962,480.28103 L 1103.5228,480.28103 L 1103.5228,336.28657"
       style="fill:black;fill-rule:nonzero;stroke:none"
       id="path349" />
    <path
       d="M 930.80419,411.50383 L 1057.362,135.71643 L 1057.265,135.50868 C 1062.5417,123.16867 1065.4502,109.5822 1065.4502,95.317095 C 1065.4502,38.713713 1019.5664,-7.1839148 962.963,-7.1839148 C 906.35962,-7.1839148 860.47584,38.713713 860.47584,95.317095 L 928.31126,95.317095 C 928.31126,76.176925 943.82283,60.665355 962.963,60.665355 C 982.10317,60.665355 997.61474,76.176925 997.61474,95.317095 C 997.61474,95.317095 1000.6201,105.63506 995.4542,119.04149 L 862.04085,411.50383 L 862.04085,480.28103 L 1069.7297,480.28103 L 1069.7297,411.50383 L 930.80419,411.50383"
       style="fill:black;fill-rule:nonzero;stroke:none"
       id="path351" />
    <path
       d="M 1277.4047,241.3059 L 1398.3257,362.2269 C 1398.3257,362.2269 1419.4048,300.18062 1419.4048,241.3059 C 1419.4048,182.43118 1398.3257,120.3849 1398.3257,120.3849 L 1277.4047,241.3059"
       style="fill:black;fill-rule:nonzero;stroke:none"
       id="path353" />
    <path
       d="M 830.56067,241.52749 L 709.63967,362.44849 C 709.63967,362.44849 688.56055,300.40221 688.56055,241.52749 C 688.56055,182.63893 709.63967,120.59264 709.63967,120.59264 L 830.56067,241.52749"
       style="fill:black;fill-rule:nonzero;stroke:none"
       id="path355" />
    <path
       d="M 573.91343,241.3059 C 573.91343,-23.789605 788.81793,-238.6941 1053.9134,-238.6941 C 1319.0089,-238.6941 1533.9134,-23.789605 1533.9134,241.3059 C 1533.9134,506.4014 1319.0089,721.3059 1053.9134,721.3059 C 788.81793,721.3059 573.91343,506.4014 573.91343,241.3059 z M 1053.9134,597.22719 C 1250.481,597.22719 1409.8347,437.8735 1409.8347,241.3059 C 1409.8347,44.738297 1250.481,-114.61539 1053.9134,-114.61539 C 857.34583,-114.61539 697.99214,44.738297 697.99214,241.3059 C 697.99214,437.8735 857.34583,597.22719 1053.9134,597.22719"
       style="fill:#ee1c23;fill-rule:nonzero;stroke:none"
       id="path357" />
  </g>
</svg>
