<?xml version="1.0" encoding="UTF-8" standalone="no"?>
<!-- Created with Inkscape (http://www.inkscape.org/) -->

<svg
   width="209.03215mm"
   height="275.33441mm"
   viewBox="0 0 209.03215 275.33441"
   version="1.1"
   id="svg5"
   inkscape:version="1.1.2 (0a00cf5339, 2022-02-04)"
   sodipodi:docname="Schulstraße.svg"
   xmlns:inkscape="http://www.inkscape.org/namespaces/inkscape"
   xmlns:sodipodi="http://sodipodi.sourceforge.net/DTD/sodipodi-0.dtd"
   xmlns="http://www.w3.org/2000/svg"
   xmlns:svg="http://www.w3.org/2000/svg">
  <sodipodi:namedview
     id="namedview7"
     pagecolor="#ffffff"
     bordercolor="#666666"
     borderopacity="1.0"
     inkscape:pageshadow="2"
     inkscape:pageopacity="0.0"
     inkscape:pagecheckerboard="0"
     inkscape:document-units="mm"
     showgrid="false"
     inkscape:zoom="0.69664703"
     inkscape:cx="392.5948"
     inkscape:cy="556.23578"
     inkscape:window-width="1850"
     inkscape:window-height="1016"
     inkscape:window-x="0"
     inkscape:window-y="0"
     inkscape:window-maximized="1"
     inkscape:current-layer="layer1" />
  <defs
     id="defs2">
    <clipPath
       clipPathUnits="userSpaceOnUse"
       id="clipPath41">
      <path
         d="m 546.529,536.368 h 48.746 v 66.009 h -48.746 z"
         id="path39" />
    </clipPath>
    <clipPath
       clipPathUnits="userSpaceOnUse"
       id="clipPath53">
      <path
         d="m 315.068,536.368 h 52.181 v 66.009 h -52.181 z"
         id="path51" />
    </clipPath>
    <clipPath
       clipPathUnits="userSpaceOnUse"
       id="clipPath65">
      <path
         d="m 245.012,536.368 h 70.195 v 66.009 h -70.195 z"
         id="path63" />
    </clipPath>
    <clipPath
       clipPathUnits="userSpaceOnUse"
       id="clipPath77">
      <path
         d="m 174.956,536.368 h 70.196 v 66.009 h -70.196 z"
         id="path75" />
    </clipPath>
    <clipPath
       clipPathUnits="userSpaceOnUse"
       id="clipPath89">
      <path
         d="m 104.9,536.368 h 70.196 v 66.009 H 104.9 Z"
         id="path87" />
    </clipPath>
    <clipPath
       clipPathUnits="userSpaceOnUse"
       id="clipPath101">
      <path
         d="m 34.844,536.368 h 70.196 v 66.009 H 34.844 Z"
         id="path99" />
    </clipPath>
    <clipPath
       clipPathUnits="userSpaceOnUse"
       id="clipPath113">
      <path
         d="M 0,470.371 H 34.984 V 602.376 H 0 Z"
         id="path111" />
    </clipPath>
    <clipPath
       clipPathUnits="userSpaceOnUse"
       id="clipPath125">
      <path
         d="M 546.529,536.508 V 476.42 h -21.294 v -6.049 h 70.04 v 66.137 z"
         id="path123" />
    </clipPath>
    <clipPath
       clipPathUnits="userSpaceOnUse"
       id="clipPath137">
      <path
         d="m 315.068,536.508 v -66.137 h 70.195 v 6.049 h -18.014 v 60.088 z"
         id="path135" />
    </clipPath>
    <clipPath
       clipPathUnits="userSpaceOnUse"
       id="clipPath149">
      <path
         d="m 245.012,470.371 h 70.195 v 66.137 h -70.195 z"
         id="path147" />
    </clipPath>
    <clipPath
       clipPathUnits="userSpaceOnUse"
       id="clipPath161">
      <path
         d="m 174.956,470.371 h 70.196 v 66.137 h -70.196 z"
         id="path159" />
    </clipPath>
    <clipPath
       clipPathUnits="userSpaceOnUse"
       id="clipPath173">
      <path
         d="m 104.9,470.371 h 70.196 v 66.137 H 104.9 Z"
         id="path171" />
    </clipPath>
    <clipPath
       clipPathUnits="userSpaceOnUse"
       id="clipPath185">
      <path
         d="m 34.844,470.371 h 70.196 v 66.137 H 34.844 Z"
         id="path183" />
    </clipPath>
    <clipPath
       clipPathUnits="userSpaceOnUse"
       id="clipPath197">
      <path
         d="m 471.855,437.338 h 53.52 v 39.083 h -53.52 z"
         id="path195" />
    </clipPath>
    <clipPath
       clipPathUnits="userSpaceOnUse"
       id="clipPath209">
      <path
         d="m 385.123,437.338 h 57.452 v 39.083 h -57.452 z"
         id="path207" />
    </clipPath>
    <clipPath
       clipPathUnits="userSpaceOnUse"
       id="clipPath221">
      <path
         d="m 525.235,404.374 h 70.041 v 66.137 h -70.041 z"
         id="path219" />
    </clipPath>
    <clipPath
       clipPathUnits="userSpaceOnUse"
       id="clipPath233">
      <path
         d="m 315.068,404.374 h 70.195 v 66.137 h -70.195 z"
         id="path231" />
    </clipPath>
    <clipPath
       clipPathUnits="userSpaceOnUse"
       id="clipPath245">
      <path
         d="m 245.012,404.374 h 70.195 v 66.137 h -70.195 z"
         id="path243" />
    </clipPath>
    <clipPath
       clipPathUnits="userSpaceOnUse"
       id="clipPath257">
      <path
         d="m 174.956,404.374 h 70.196 v 66.137 h -70.196 z"
         id="path255" />
    </clipPath>
    <clipPath
       clipPathUnits="userSpaceOnUse"
       id="clipPath269">
      <path
         d="m 104.9,404.374 h 70.196 v 66.137 H 104.9 Z"
         id="path267" />
    </clipPath>
    <clipPath
       clipPathUnits="userSpaceOnUse"
       id="clipPath281">
      <path
         d="m 34.844,404.374 h 70.196 v 66.137 H 34.844 Z"
         id="path279" />
    </clipPath>
    <clipPath
       clipPathUnits="userSpaceOnUse"
       id="clipPath293">
      <path
         d="M 0,338.378 H 34.984 V 470.511 H 0 Z"
         id="path291" />
    </clipPath>
    <clipPath
       clipPathUnits="userSpaceOnUse"
       id="clipPath305">
      <path
         d="m 471.855,371.342 h 53.52 v 66.137 h -53.52 z"
         id="path303" />
    </clipPath>
    <clipPath
       clipPathUnits="userSpaceOnUse"
       id="clipPath317">
      <path
         d="m 385.123,371.342 h 57.452 v 66.137 h -57.452 z"
         id="path315" />
    </clipPath>
    <clipPath
       clipPathUnits="userSpaceOnUse"
       id="clipPath329">
      <path
         d="m 525.235,338.378 h 70.041 v 66.137 h -70.041 z"
         id="path327" />
    </clipPath>
    <clipPath
       clipPathUnits="userSpaceOnUse"
       id="clipPath341">
      <path
         d="m 315.068,338.378 h 70.195 v 66.137 h -70.195 z"
         id="path339" />
    </clipPath>
    <clipPath
       clipPathUnits="userSpaceOnUse"
       id="clipPath353">
      <path
         d="m 245.012,338.378 h 70.195 v 66.137 h -70.195 z"
         id="path351" />
    </clipPath>
    <clipPath
       clipPathUnits="userSpaceOnUse"
       id="clipPath365">
      <path
         d="m 174.956,338.378 h 70.196 v 66.137 h -70.196 z"
         id="path363" />
    </clipPath>
    <clipPath
       clipPathUnits="userSpaceOnUse"
       id="clipPath377">
      <path
         d="m 104.9,338.378 h 70.196 v 66.137 H 104.9 Z"
         id="path375" />
    </clipPath>
    <clipPath
       clipPathUnits="userSpaceOnUse"
       id="clipPath389">
      <path
         d="m 34.844,338.378 h 70.196 v 66.137 H 34.844 Z"
         id="path387" />
    </clipPath>
    <clipPath
       clipPathUnits="userSpaceOnUse"
       id="clipPath401">
      <path
         d="m 471.855,305.345 h 53.52 v 66.137 h -53.52 z"
         id="path399" />
    </clipPath>
    <clipPath
       clipPathUnits="userSpaceOnUse"
       id="clipPath413">
      <path
         d="m 385.123,305.345 h 57.452 v 66.137 h -57.452 z"
         id="path411" />
    </clipPath>
    <clipPath
       clipPathUnits="userSpaceOnUse"
       id="clipPath425">
      <path
         d="m 525.235,272.381 h 70.041 v 66.137 h -70.041 z"
         id="path423" />
    </clipPath>
    <clipPath
       clipPathUnits="userSpaceOnUse"
       id="clipPath437">
      <path
         d="m 315.068,272.381 h 70.195 v 66.137 h -70.195 z"
         id="path435" />
    </clipPath>
    <clipPath
       clipPathUnits="userSpaceOnUse"
       id="clipPath449">
      <path
         d="m 245.012,272.381 h 70.195 v 66.137 h -70.195 z"
         id="path447" />
    </clipPath>
    <clipPath
       clipPathUnits="userSpaceOnUse"
       id="clipPath461">
      <path
         d="m 174.956,272.381 h 70.196 v 66.137 h -70.196 z"
         id="path459" />
    </clipPath>
    <clipPath
       clipPathUnits="userSpaceOnUse"
       id="clipPath473">
      <path
         d="m 104.9,272.381 h 70.196 v 66.137 H 104.9 Z"
         id="path471" />
    </clipPath>
    <clipPath
       clipPathUnits="userSpaceOnUse"
       id="clipPath485">
      <path
         d="m 34.844,272.381 h 70.196 v 66.137 H 34.844 Z"
         id="path483" />
    </clipPath>
    <clipPath
       clipPathUnits="userSpaceOnUse"
       id="clipPath497">
      <path
         d="m 0,239.488 h 34.984 v 99.03 H 0 Z"
         id="path495" />
    </clipPath>
    <clipPath
       clipPathUnits="userSpaceOnUse"
       id="clipPath509">
      <path
         d="m 471.855,239.488 h 53.52 v 65.997 h -53.52 z"
         id="path507" />
    </clipPath>
    <clipPath
       clipPathUnits="userSpaceOnUse"
       id="clipPath521">
      <path
         d="m 385.123,239.488 h 57.452 v 65.997 h -57.452 z"
         id="path519" />
    </clipPath>
    <clipPath
       clipPathUnits="userSpaceOnUse"
       id="clipPath533">
      <path
         d="m 525.235,239.488 h 70.041 v 33.034 h -70.041 z"
         id="path531" />
    </clipPath>
    <clipPath
       clipPathUnits="userSpaceOnUse"
       id="clipPath545">
      <path
         d="m 245.012,239.488 h 140.251 v 33.034 H 245.012 Z"
         id="path543" />
    </clipPath>
    <clipPath
       clipPathUnits="userSpaceOnUse"
       id="clipPath557">
      <path
         d="m 104.9,239.488 h 140.251 v 33.034 H 104.9 Z"
         id="path555" />
    </clipPath>
    <clipPath
       clipPathUnits="userSpaceOnUse"
       id="clipPath569">
      <path
         d="m 34.844,239.488 h 70.196 v 33.034 H 34.844 Z"
         id="path567" />
    </clipPath>
    <clipPath
       clipPathUnits="userSpaceOnUse"
       id="clipPath581">
      <path
         d="m 458.544,238.955 v -0.078 h -10.809 v 0.078 h -5.16 V 225.61 h 29.28 v 13.345 z"
         id="path579" />
    </clipPath>
    <clipPath
       clipPathUnits="userSpaceOnUse"
       id="clipPath593">
      <path
         d="m 458.544,238.955 h 13.311 v 0.533 h -13.311 z m -15.969,0 h 5.16 v 0.533 h -5.16 z"
         id="path591" />
    </clipPath>
    <clipPath
       clipPathUnits="userSpaceOnUse"
       id="clipPath605">
      <path
         d="m 458.544,307.094 h 13.311 V 476.42 h -13.311 z m -15.969,0 h 5.16 V 476.42 h -5.16 z"
         id="path603" />
    </clipPath>
    <clipPath
       clipPathUnits="userSpaceOnUse"
       id="clipPath617">
      <path
         d="m 458.544,239.488 h 13.311 v 67.747 h -13.311 z m -15.969,0 h 5.16 v 67.747 h -5.16 z"
         id="path615" />
    </clipPath>
    <linearGradient
       x1="0"
       y1="0"
       x2="1"
       y2="0"
       gradientUnits="userSpaceOnUse"
       gradientTransform="matrix(10.809629,0,0,-10.809629,447.73424,238.87695)"
       spreadMethod="pad"
       id="linearGradient651">
      <stop
         style="stop-opacity:1;stop-color:#39394a"
         offset="0"
         id="stop635" />
      <stop
         style="stop-opacity:1;stop-color:#39394a"
         offset="0.09545459"
         id="stop637" />
      <stop
         style="stop-opacity:1;stop-color:#39394a"
         offset="0.159341"
         id="stop639" />
      <stop
         style="stop-opacity:1;stop-color:#39394a"
         offset="0.35683265"
         id="stop641" />
      <stop
         style="stop-opacity:1;stop-color:#ffffff"
         offset="0.489011"
         id="stop643" />
      <stop
         style="stop-opacity:1;stop-color:#39394a"
         offset="0.78022"
         id="stop645" />
      <stop
         style="stop-opacity:1;stop-color:#39394a"
         offset="0.79648386"
         id="stop647" />
      <stop
         style="stop-opacity:1;stop-color:#39394a"
         offset="1"
         id="stop649" />
    </linearGradient>
    <clipPath
       clipPathUnits="userSpaceOnUse"
       id="clipPath661">
      <path
         d="M 367.249,602.376 H 546.53 V 707.3 H 367.249 Z"
         id="path659" />
    </clipPath>
    <clipPath
       clipPathUnits="userSpaceOnUse"
       id="clipPath673">
      <path
         d="m 474.775,539.308 h 71.754 v 63.068 h -71.754 z"
         id="path671" />
    </clipPath>
    <clipPath
       clipPathUnits="userSpaceOnUse"
       id="clipPath685">
      <path
         d="m 403.04,539.308 h 71.875 v 63.068 H 403.04 Z"
         id="path683" />
    </clipPath>
    <clipPath
       clipPathUnits="userSpaceOnUse"
       id="clipPath697">
      <path
         d="M 367.249,476.42 H 403.18 V 602.376 H 367.249 Z"
         id="path695" />
    </clipPath>
    <clipPath
       clipPathUnits="userSpaceOnUse"
       id="clipPath709">
      <path
         d="m 474.775,476.42 h 71.754 v 63.027 h -71.754 z"
         id="path707" />
    </clipPath>
    <clipPath
       clipPathUnits="userSpaceOnUse"
       id="clipPath721">
      <path
         d="M 403.04,539.447 V 476.42 h 39.535 v 46.79 h 29.28 v -46.79 h 3.06 v 63.027 z"
         id="path719" />
    </clipPath>
    <clipPath
       clipPathUnits="userSpaceOnUse"
       id="clipPath733">
      <path
         d="m 442.575,523.21 v -46.79 h 5.16 v 41.87 h 10.809 v -41.87 h 13.311 v 46.79 z"
         id="path731" />
    </clipPath>
    <clipPath
       clipPathUnits="userSpaceOnUse"
       id="clipPath745">
      <path
         d="m 447.735,476.42 h 10.809 v 41.87 h -10.809 z"
         id="path743" />
    </clipPath>
    <clipPath
       clipPathUnits="userSpaceOnUse"
       id="clipPath757">
      <path
         d="M 0,0 H 595.275 V 841.89 H 0 Z"
         id="path755" />
    </clipPath>
    <clipPath
       clipPathUnits="userSpaceOnUse"
       id="clipPath787">
      <path
         d="m 506.907,35.65 h 57.664 v 57.665 h -57.664 z"
         id="path785" />
    </clipPath>
    <clipPath
       clipPathUnits="userSpaceOnUse"
       id="clipPath1527">
      <path
         d="M 0,0 H 595.275 V 841.89 H 0 Z"
         id="path1525" />
    </clipPath>
    <clipPath
       clipPathUnits="userSpaceOnUse"
       id="clipPath1537">
      <path
         d="m 32.678,737.584 h 208.669 v 75.03 H 32.678 Z"
         id="path1535" />
    </clipPath>
    <clipPath
       clipPathUnits="userSpaceOnUse"
       id="clipPath1567">
      <path
         d="M 259.605,746.99 H 397.42 v 57.236 H 259.605 Z"
         id="path1565" />
    </clipPath>
    <clipPath
       clipPathUnits="userSpaceOnUse"
       id="clipPath1623">
      <path
         d="m 314.901,746.99 h 43.65 v 8.013 h -43.65 z"
         id="path1621" />
    </clipPath>
    <clipPath
       clipPathUnits="userSpaceOnUse"
       id="clipPath1671">
      <path
         d="M 0,0 H 595.275 V 841.89 H 0 Z"
         id="path1669" />
    </clipPath>
  </defs>
  <g
     inkscape:label="Ebene 1"
     inkscape:groupmode="layer"
     id="layer1"
     transform="translate(-1.1996792,-0.98069973)">
    <g
       id="g751"
       transform="matrix(1.2859244,0,0,-1.2859244,-476.98674,904.58293)">
      <g
         id="g753"
         clip-path="url(#clipPath757)">
        <g
           id="g759"
           transform="translate(379.458,702.6869)">
          <path
             d="m 0,0 c -4.195,0 -7.596,-3.401 -7.596,-7.596 v -198.922 c 0,-4.195 3.401,-7.596 7.596,-7.596 h 147.362 c 4.195,0 7.596,3.401 7.596,7.596 V -7.596 c 0,4.195 -3.401,7.596 -7.596,7.596 z"
             style="fill:#ffffff;fill-opacity:1;fill-rule:nonzero;stroke:none"
             id="path761" />
        </g>
        <g
           id="g763"
           transform="translate(384.5378,697.6071)">
          <path
             d="m 0,0 c -4.195,0 -7.596,-3.401 -7.596,-7.596 v -188.763 c 0,-4.195 3.401,-7.596 7.596,-7.596 h 137.203 c 4.195,0 7.595,3.401 7.595,7.596 V -7.596 c 0,4.195 -3.4,7.596 -7.595,7.596 z"
             style="fill:#3c63b8;fill-opacity:1;fill-rule:nonzero;stroke:none"
             id="path765" />
        </g>
        <g
           id="g767"
           transform="translate(403.8254,513.1218)">
          <path
             d="m 0,0 c -0.463,0.131 -0.925,0.303 -1.388,0.515 l -0.809,-1.536 c 0.57,-0.288 1.164,-0.51 1.781,-0.666 0.616,-0.156 1.318,-0.234 2.104,-0.234 0.771,0 1.446,0.1 2.024,0.3 0.578,0.2 1.056,0.471 1.434,0.815 0.378,0.344 0.663,0.753 0.856,1.228 0.193,0.474 0.289,0.986 0.289,1.536 0,0.65 -0.108,1.2 -0.324,1.649 C 5.751,4.057 5.478,4.438 5.146,4.75 4.814,5.063 4.441,5.322 4.024,5.528 3.608,5.734 3.199,5.918 2.799,6.081 2.49,6.206 2.189,6.34 1.897,6.484 1.603,6.627 1.341,6.787 1.11,6.962 0.879,7.137 0.694,7.337 0.555,7.561 0.416,7.786 0.347,8.049 0.347,8.348 c 0,0.575 0.2,1.015 0.601,1.322 0.401,0.306 0.879,0.459 1.434,0.459 0.555,0 1.064,-0.066 1.527,-0.197 C 4.371,9.801 4.842,9.629 5.32,9.417 l 0.763,1.499 C 5.929,10.991 5.728,11.078 5.482,11.178 5.235,11.278 4.953,11.368 4.637,11.45 4.321,11.531 3.982,11.603 3.62,11.665 3.257,11.728 2.883,11.759 2.498,11.759 2.004,11.759 1.492,11.7 0.96,11.581 0.428,11.462 -0.058,11.265 -0.497,10.991 -0.937,10.716 -1.299,10.357 -1.584,9.913 -1.87,9.47 -2.012,8.923 -2.012,8.273 c 0,-0.574 0.096,-1.055 0.289,-1.442 0.192,-0.388 0.439,-0.719 0.74,-0.994 C -0.682,5.562 -0.343,5.334 0.035,5.153 0.412,4.972 0.794,4.8 1.18,4.638 1.519,4.488 1.85,4.338 2.174,4.188 2.498,4.038 2.783,3.863 3.03,3.664 3.276,3.464 3.477,3.226 3.631,2.951 3.785,2.677 3.863,2.345 3.863,1.958 3.863,1.184 3.643,0.631 3.203,0.3 2.764,-0.031 2.22,-0.197 1.573,-0.197 0.987,-0.197 0.463,-0.131 0,0 m 12.041,-0.244 c -0.216,0.069 -0.413,0.222 -0.59,0.46 -0.177,0.237 -0.32,0.583 -0.428,1.04 -0.108,0.455 -0.162,1.071 -0.162,1.845 0,0.775 0.046,1.396 0.139,1.865 0.092,0.468 0.22,0.825 0.382,1.068 0.161,0.244 0.358,0.403 0.589,0.478 0.232,0.075 0.486,0.112 0.764,0.112 0.308,0 0.597,-0.025 0.867,-0.075 0.27,-0.05 0.621,-0.162 1.052,-0.337 l 0.694,1.424 C 14.993,7.786 14.581,7.917 14.111,8.03 13.64,8.142 13.135,8.199 12.596,8.199 11.223,8.199 10.202,7.796 9.531,6.99 8.861,6.184 8.525,4.888 8.525,3.101 c 0,-1.049 0.104,-1.902 0.312,-2.558 0.209,-0.655 0.494,-1.165 0.856,-1.527 0.362,-0.362 0.79,-0.609 1.284,-0.74 0.493,-0.131 1.025,-0.197 1.596,-0.197 0.539,0 1.041,0.056 1.503,0.169 0.463,0.112 0.887,0.25 1.272,0.412 l -0.694,1.387 c -0.431,-0.15 -0.782,-0.253 -1.052,-0.309 -0.27,-0.057 -0.567,-0.085 -0.89,-0.085 -0.232,0 -0.455,0.035 -0.671,0.103 m 7.942,-1.489 v 6.315 c 0,0.4 0.062,0.737 0.185,1.012 0.123,0.274 0.278,0.496 0.463,0.665 0.185,0.169 0.397,0.287 0.636,0.356 0.239,0.069 0.474,0.103 0.705,0.103 0.401,0 0.721,-0.116 0.96,-0.347 0.239,-0.231 0.359,-0.677 0.359,-1.339 v -6.765 h 2.266 v 6.671 c 0,1.162 -0.266,1.996 -0.798,2.502 -0.532,0.506 -1.299,0.759 -2.301,0.759 -1.018,0 -1.843,-0.382 -2.475,-1.144 v 4.329 H 17.716 V -1.733 Z m 8.671,9.744 V 1.34 c 0,-1.087 0.243,-1.902 0.729,-2.446 0.485,-0.543 1.283,-0.815 2.393,-0.815 0.54,0 1.033,0.11 1.481,0.328 0.447,0.219 0.817,0.54 1.11,0.965 l 0.393,-1.105 h 1.573 V 8.011 H 34.066 V 1.64 c 0,-0.75 -0.177,-1.284 -0.532,-1.603 -0.355,-0.318 -0.794,-0.477 -1.318,-0.477 -0.448,0 -0.775,0.134 -0.983,0.403 -0.208,0.268 -0.312,0.758 -0.312,1.471 v 6.577 z m 14.31,-8.152 c -0.201,-0.05 -0.417,-0.075 -0.648,-0.075 -0.2,0 -0.347,0.05 -0.439,0.15 -0.093,0.1 -0.139,0.3 -0.139,0.6 v 10.85 h -2.267 v -11 c 0,-0.799 0.22,-1.368 0.659,-1.705 0.44,-0.337 0.968,-0.506 1.585,-0.506 0.277,0 0.555,0.022 0.832,0.065 0.278,0.044 0.563,0.104 0.856,0.179 z m 7.082,-1.611 c 0.47,0.112 0.886,0.29 1.249,0.534 0.362,0.244 0.655,0.556 0.879,0.937 0.223,0.381 0.335,0.84 0.335,1.377 0,0.462 -0.089,0.853 -0.266,1.171 -0.177,0.319 -0.409,0.597 -0.694,0.834 -0.285,0.238 -0.601,0.438 -0.948,0.6 -0.347,0.162 -0.683,0.312 -1.006,0.45 -0.494,0.2 -0.918,0.403 -1.272,0.609 -0.355,0.206 -0.532,0.471 -0.532,0.796 0,0.325 0.13,0.587 0.393,0.787 0.262,0.2 0.593,0.3 0.994,0.3 0.386,0 0.771,-0.047 1.157,-0.14 C 50.72,6.409 51.16,6.25 51.653,6.025 l 0.763,1.405 c -0.277,0.162 -0.686,0.331 -1.225,0.506 -0.54,0.175 -1.226,0.263 -2.059,0.263 -0.386,0 -0.79,-0.044 -1.214,-0.132 C 47.494,7.98 47.104,7.833 46.75,7.627 46.395,7.421 46.102,7.146 45.871,6.802 45.64,6.459 45.524,6.025 45.524,5.5 c 0,-0.425 0.081,-0.787 0.243,-1.087 0.162,-0.3 0.37,-0.559 0.624,-0.778 0.255,-0.218 0.536,-0.4 0.845,-0.543 0.308,-0.144 0.616,-0.278 0.925,-0.403 0.262,-0.112 0.512,-0.222 0.751,-0.328 0.239,-0.106 0.451,-0.225 0.636,-0.356 0.185,-0.131 0.332,-0.281 0.44,-0.45 0.108,-0.168 0.162,-0.371 0.162,-0.609 0,-0.437 -0.151,-0.759 -0.451,-0.965 -0.301,-0.206 -0.706,-0.309 -1.215,-0.309 -0.354,0 -0.728,0.034 -1.121,0.103 -0.393,0.069 -0.837,0.209 -1.33,0.422 l -0.74,-1.406 c 0.308,-0.162 0.743,-0.322 1.306,-0.478 0.563,-0.156 1.238,-0.234 2.024,-0.234 0.478,0 0.952,0.056 1.423,0.169 m 6.117,2.455 c 0,-0.762 0.223,-1.39 0.671,-1.884 0.447,-0.493 1.164,-0.74 2.151,-0.74 0.401,0 0.79,0.038 1.168,0.113 0.378,0.075 0.759,0.181 1.145,0.318 l -0.578,1.349 c -0.263,-0.087 -0.49,-0.147 -0.683,-0.178 -0.193,-0.031 -0.389,-0.046 -0.589,-0.046 -0.371,0 -0.633,0.099 -0.787,0.299 -0.154,0.2 -0.231,0.481 -0.231,0.844 v 5.734 h 2.498 V 8.011 H 58.43 v 2.062 H 56.163 V 8.011 H 54.706 L 54.498,6.512 h 1.665 z M 68.077,6.39 c 0.216,-0.031 0.463,-0.097 0.74,-0.197 l 0.486,1.781 C 69.072,8.036 68.855,8.089 68.655,8.133 68.455,8.177 68.2,8.199 67.892,8.199 67.229,8.199 66.708,8.033 66.331,7.702 65.953,7.371 65.656,6.968 65.44,6.493 l -0.37,1.518 h -1.573 v -9.744 h 2.267 v 5.509 c 0,0.774 0.131,1.412 0.393,1.911 0.262,0.5 0.709,0.75 1.342,0.75 0.169,0 0.362,-0.016 0.578,-0.047 m 7.471,0.178 C 75.779,6.531 75.971,6.456 76.126,6.343 76.28,6.231 76.395,6.065 76.473,5.847 76.55,5.628 76.588,5.338 76.588,4.975 v -0.73 h -1.225 c -1.496,0 -2.595,-0.241 -3.296,-0.722 -0.702,-0.481 -1.053,-1.271 -1.053,-2.371 0,-0.587 0.081,-1.074 0.243,-1.461 0.162,-0.388 0.389,-0.703 0.682,-0.947 0.293,-0.243 0.64,-0.415 1.041,-0.515 0.401,-0.1 0.833,-0.15 1.295,-0.15 0.71,0 1.269,0.125 1.677,0.375 0.409,0.25 0.721,0.556 0.937,0.918 l 0.393,-1.105 h 1.55 v 6.821 c 0,1.061 -0.286,1.846 -0.856,2.352 -0.57,0.506 -1.573,0.759 -3.007,0.759 -0.601,0 -1.214,-0.057 -1.838,-0.169 C 72.506,7.917 71.97,7.786 71.523,7.636 l 0.578,-1.424 c 0.524,0.15 1.014,0.256 1.469,0.319 0.455,0.062 0.844,0.093 1.168,0.093 0.308,0 0.578,-0.018 0.81,-0.056 m 1.04,-5.116 c 0,-0.187 -0.034,-0.39 -0.104,-0.609 -0.069,-0.218 -0.177,-0.418 -0.323,-0.599 -0.147,-0.182 -0.344,-0.335 -0.59,-0.46 -0.247,-0.125 -0.548,-0.187 -0.902,-0.187 -0.494,0 -0.841,0.137 -1.041,0.412 -0.201,0.275 -0.301,0.694 -0.301,1.256 0,0.6 0.151,1.031 0.451,1.293 0.301,0.262 0.798,0.393 1.492,0.393 h 1.318 z m 13.76,0.919 C 90.17,2.695 89.954,2.98 89.7,3.223 89.446,3.467 89.164,3.682 88.856,3.87 c -0.309,0.187 -0.59,0.365 -0.844,0.534 -0.255,0.168 -0.471,0.337 -0.648,0.506 -0.177,0.168 -0.266,0.359 -0.266,0.571 0,0.338 0.112,0.609 0.335,0.815 0.224,0.207 0.467,0.416 0.729,0.628 0.262,0.213 0.505,0.472 0.729,0.778 0.223,0.306 0.335,0.728 0.335,1.265 0,0.862 -0.293,1.561 -0.879,2.099 -0.586,0.537 -1.457,0.806 -2.614,0.806 -0.524,0 -1.014,-0.063 -1.468,-0.188 -0.455,-0.125 -0.852,-0.328 -1.191,-0.609 -0.34,-0.281 -0.61,-0.64 -0.81,-1.077 C 82.063,9.56 81.963,9.035 81.963,8.423 V -1.733 h 2.267 v 10.1 c 0,0.437 0.046,0.784 0.139,1.04 0.092,0.256 0.216,0.45 0.37,0.581 0.154,0.131 0.324,0.216 0.509,0.253 0.185,0.038 0.362,0.056 0.532,0.056 0.509,0 0.871,-0.137 1.087,-0.412 0.215,-0.275 0.324,-0.612 0.324,-1.012 0,-0.4 -0.12,-0.728 -0.359,-0.984 C 86.593,7.633 86.335,7.393 86.057,7.168 85.78,6.943 85.521,6.702 85.282,6.446 85.043,6.19 84.924,5.862 84.924,5.463 c 0,-0.4 0.084,-0.741 0.254,-1.022 0.17,-0.281 0.378,-0.528 0.625,-0.74 0.246,-0.213 0.516,-0.406 0.809,-0.581 0.293,-0.175 0.563,-0.356 0.81,-0.543 0.246,-0.188 0.454,-0.394 0.624,-0.619 0.17,-0.225 0.255,-0.5 0.255,-0.824 0,-0.5 -0.104,-0.862 -0.313,-1.087 -0.208,-0.225 -0.512,-0.337 -0.913,-0.337 -0.293,0 -0.555,0.021 -0.786,0.065 -0.232,0.044 -0.479,0.109 -0.741,0.197 l -0.624,-1.368 c 0.308,-0.138 0.674,-0.25 1.099,-0.337 0.423,-0.088 0.836,-0.132 1.237,-0.132 0.463,0 0.898,0.054 1.307,0.16 0.408,0.106 0.763,0.281 1.064,0.524 0.3,0.244 0.539,0.563 0.717,0.956 0.177,0.394 0.266,0.871 0.266,1.434 0,0.449 -0.089,0.837 -0.266,1.162 m 10.507,0.149 v 1.069 c 0,0.737 -0.066,1.393 -0.196,1.967 -0.132,0.575 -0.347,1.059 -0.648,1.453 -0.301,0.393 -0.698,0.69 -1.191,0.89 -0.494,0.199 -1.103,0.3 -1.827,0.3 -1.434,0 -2.483,-0.416 -3.146,-1.247 -0.663,-0.831 -0.994,-2.164 -0.994,-4.001 0,-1.011 0.127,-1.836 0.381,-2.473 0.255,-0.637 0.59,-1.134 1.006,-1.49 0.417,-0.356 0.894,-0.597 1.434,-0.721 0.54,-0.125 1.095,-0.188 1.666,-0.188 0.647,0 1.264,0.075 1.85,0.225 0.586,0.15 1.056,0.306 1.411,0.469 L 99.93,0.141 c -0.879,-0.35 -1.696,-0.525 -2.452,-0.525 -0.323,0 -0.624,0.022 -0.902,0.065 -0.277,0.044 -0.52,0.163 -0.728,0.356 -0.208,0.194 -0.378,0.484 -0.509,0.872 -0.131,0.387 -0.205,0.924 -0.22,1.611 z m -3.099,4.067 c 0.216,-0.088 0.393,-0.238 0.532,-0.45 0.139,-0.212 0.243,-0.509 0.312,-0.89 0.07,-0.381 0.112,-0.859 0.127,-1.434 h -3.585 c 0.031,0.638 0.096,1.15 0.197,1.537 0.1,0.387 0.227,0.681 0.382,0.881 0.154,0.2 0.335,0.331 0.543,0.393 0.208,0.063 0.436,0.094 0.682,0.094 0.324,0 0.594,-0.044 0.81,-0.131"
             style="fill:#ffffff;fill-opacity:1;fill-rule:nonzero;stroke:none"
             id="path769" />
        </g>
        <g
           id="g771"
           transform="translate(403.8254,513.1218)">
          <path
             d="m 0,0 c -0.463,0.131 -0.925,0.303 -1.388,0.515 l -0.809,-1.536 c 0.57,-0.288 1.164,-0.51 1.781,-0.666 0.616,-0.156 1.318,-0.234 2.104,-0.234 0.771,0 1.446,0.1 2.024,0.3 0.578,0.2 1.056,0.471 1.434,0.815 0.378,0.344 0.663,0.753 0.856,1.228 0.193,0.474 0.289,0.986 0.289,1.536 0,0.65 -0.108,1.2 -0.324,1.649 C 5.751,4.057 5.478,4.438 5.146,4.75 4.814,5.063 4.441,5.322 4.024,5.528 3.608,5.734 3.199,5.918 2.799,6.081 2.49,6.206 2.189,6.34 1.897,6.484 1.603,6.627 1.341,6.787 1.11,6.962 0.879,7.137 0.694,7.337 0.555,7.561 0.416,7.786 0.347,8.049 0.347,8.348 c 0,0.575 0.2,1.015 0.601,1.322 0.401,0.306 0.879,0.459 1.434,0.459 0.555,0 1.064,-0.066 1.527,-0.197 C 4.371,9.801 4.842,9.629 5.32,9.417 l 0.763,1.499 C 5.929,10.991 5.728,11.078 5.482,11.178 5.235,11.278 4.953,11.368 4.637,11.45 4.321,11.531 3.982,11.603 3.62,11.665 3.257,11.728 2.883,11.759 2.498,11.759 2.004,11.759 1.492,11.7 0.96,11.581 0.428,11.462 -0.058,11.265 -0.497,10.991 -0.937,10.716 -1.299,10.357 -1.584,9.913 -1.87,9.47 -2.012,8.923 -2.012,8.273 c 0,-0.574 0.096,-1.055 0.289,-1.442 0.192,-0.388 0.439,-0.719 0.74,-0.994 C -0.682,5.562 -0.343,5.334 0.035,5.153 0.412,4.972 0.794,4.8 1.18,4.638 1.519,4.488 1.85,4.338 2.174,4.188 2.498,4.038 2.783,3.863 3.03,3.664 3.276,3.464 3.477,3.226 3.631,2.951 3.785,2.677 3.863,2.345 3.863,1.958 3.863,1.184 3.643,0.631 3.203,0.3 2.764,-0.031 2.22,-0.197 1.573,-0.197 0.987,-0.197 0.463,-0.131 0,0 Z m 12.041,-0.244 c -0.216,0.069 -0.413,0.222 -0.59,0.46 -0.177,0.237 -0.32,0.583 -0.428,1.04 -0.108,0.455 -0.162,1.071 -0.162,1.845 0,0.775 0.046,1.396 0.139,1.865 0.092,0.468 0.22,0.825 0.382,1.068 0.161,0.244 0.358,0.403 0.589,0.478 0.232,0.075 0.486,0.112 0.764,0.112 0.308,0 0.597,-0.025 0.867,-0.075 0.27,-0.05 0.621,-0.162 1.052,-0.337 l 0.694,1.424 C 14.993,7.786 14.581,7.917 14.111,8.03 13.64,8.142 13.135,8.199 12.596,8.199 11.223,8.199 10.202,7.796 9.531,6.99 8.861,6.184 8.525,4.888 8.525,3.101 c 0,-1.049 0.104,-1.902 0.312,-2.558 0.209,-0.655 0.494,-1.165 0.856,-1.527 0.362,-0.362 0.79,-0.609 1.284,-0.74 0.493,-0.131 1.025,-0.197 1.596,-0.197 0.539,0 1.041,0.056 1.503,0.169 0.463,0.112 0.887,0.25 1.272,0.412 l -0.694,1.387 c -0.431,-0.15 -0.782,-0.253 -1.052,-0.309 -0.27,-0.057 -0.567,-0.085 -0.89,-0.085 -0.232,0 -0.455,0.035 -0.671,0.103 z m 7.942,-1.489 v 6.315 c 0,0.4 0.062,0.737 0.185,1.012 0.123,0.274 0.278,0.496 0.463,0.665 0.185,0.169 0.397,0.287 0.636,0.356 0.239,0.069 0.474,0.103 0.705,0.103 0.401,0 0.721,-0.116 0.96,-0.347 0.239,-0.231 0.359,-0.677 0.359,-1.339 v -6.765 h 2.266 v 6.671 c 0,1.162 -0.266,1.996 -0.798,2.502 -0.532,0.506 -1.299,0.759 -2.301,0.759 -1.018,0 -1.843,-0.382 -2.475,-1.144 v 4.329 H 17.716 V -1.733 Z m 8.671,9.744 V 1.34 c 0,-1.087 0.243,-1.902 0.729,-2.446 0.485,-0.543 1.283,-0.815 2.393,-0.815 0.54,0 1.033,0.11 1.481,0.328 0.447,0.219 0.817,0.54 1.11,0.965 l 0.393,-1.105 h 1.573 V 8.011 H 34.066 V 1.64 c 0,-0.75 -0.177,-1.284 -0.532,-1.603 -0.355,-0.318 -0.794,-0.477 -1.318,-0.477 -0.448,0 -0.775,0.134 -0.983,0.403 -0.208,0.268 -0.312,0.758 -0.312,1.471 v 6.577 z m 14.31,-8.152 c -0.201,-0.05 -0.417,-0.075 -0.648,-0.075 -0.2,0 -0.347,0.05 -0.439,0.15 -0.093,0.1 -0.139,0.3 -0.139,0.6 v 10.85 h -2.267 v -11 c 0,-0.799 0.22,-1.368 0.659,-1.705 0.44,-0.337 0.968,-0.506 1.585,-0.506 0.277,0 0.555,0.022 0.832,0.065 0.278,0.044 0.563,0.104 0.856,0.179 z m 7.082,-1.611 c 0.47,0.112 0.886,0.29 1.249,0.534 0.362,0.244 0.655,0.556 0.879,0.937 0.223,0.381 0.335,0.84 0.335,1.377 0,0.462 -0.089,0.853 -0.266,1.171 -0.177,0.319 -0.409,0.597 -0.694,0.834 -0.285,0.238 -0.601,0.438 -0.948,0.6 -0.347,0.162 -0.683,0.312 -1.006,0.45 -0.494,0.2 -0.918,0.403 -1.272,0.609 -0.355,0.206 -0.532,0.471 -0.532,0.796 0,0.325 0.13,0.587 0.393,0.787 0.262,0.2 0.593,0.3 0.994,0.3 0.386,0 0.771,-0.047 1.157,-0.14 C 50.72,6.409 51.16,6.25 51.653,6.025 l 0.763,1.405 c -0.277,0.162 -0.686,0.331 -1.225,0.506 -0.54,0.175 -1.226,0.263 -2.059,0.263 -0.386,0 -0.79,-0.044 -1.214,-0.132 C 47.494,7.98 47.104,7.833 46.75,7.627 46.395,7.421 46.102,7.146 45.871,6.802 45.64,6.459 45.524,6.025 45.524,5.5 c 0,-0.425 0.081,-0.787 0.243,-1.087 0.162,-0.3 0.37,-0.559 0.624,-0.778 0.255,-0.218 0.536,-0.4 0.845,-0.543 0.308,-0.144 0.616,-0.278 0.925,-0.403 0.262,-0.112 0.512,-0.222 0.751,-0.328 0.239,-0.106 0.451,-0.225 0.636,-0.356 0.185,-0.131 0.332,-0.281 0.44,-0.45 0.108,-0.168 0.162,-0.371 0.162,-0.609 0,-0.437 -0.151,-0.759 -0.451,-0.965 -0.301,-0.206 -0.706,-0.309 -1.215,-0.309 -0.354,0 -0.728,0.034 -1.121,0.103 -0.393,0.069 -0.837,0.209 -1.33,0.422 l -0.74,-1.406 c 0.308,-0.162 0.743,-0.322 1.306,-0.478 0.563,-0.156 1.238,-0.234 2.024,-0.234 0.478,0 0.952,0.056 1.423,0.169 z m 6.117,2.455 c 0,-0.762 0.223,-1.39 0.671,-1.884 0.447,-0.493 1.164,-0.74 2.151,-0.74 0.401,0 0.79,0.038 1.168,0.113 0.378,0.075 0.759,0.181 1.145,0.318 l -0.578,1.349 c -0.263,-0.087 -0.49,-0.147 -0.683,-0.178 -0.193,-0.031 -0.389,-0.046 -0.589,-0.046 -0.371,0 -0.633,0.099 -0.787,0.299 -0.154,0.2 -0.231,0.481 -0.231,0.844 v 5.734 h 2.498 V 8.011 H 58.43 v 2.062 H 56.163 V 8.011 H 54.706 L 54.498,6.512 h 1.665 z M 68.077,6.39 c 0.216,-0.031 0.463,-0.097 0.74,-0.197 l 0.486,1.781 C 69.072,8.036 68.855,8.089 68.655,8.133 68.455,8.177 68.2,8.199 67.892,8.199 67.229,8.199 66.708,8.033 66.331,7.702 65.953,7.371 65.656,6.968 65.44,6.493 l -0.37,1.518 h -1.573 v -9.744 h 2.267 v 5.509 c 0,0.774 0.131,1.412 0.393,1.911 0.262,0.5 0.709,0.75 1.342,0.75 0.169,0 0.362,-0.016 0.578,-0.047 z m 7.471,0.178 C 75.779,6.531 75.971,6.456 76.126,6.343 76.28,6.231 76.395,6.065 76.473,5.847 76.55,5.628 76.588,5.338 76.588,4.975 v -0.73 h -1.225 c -1.496,0 -2.595,-0.241 -3.296,-0.722 -0.702,-0.481 -1.053,-1.271 -1.053,-2.371 0,-0.587 0.081,-1.074 0.243,-1.461 0.162,-0.388 0.389,-0.703 0.682,-0.947 0.293,-0.243 0.64,-0.415 1.041,-0.515 0.401,-0.1 0.833,-0.15 1.295,-0.15 0.71,0 1.269,0.125 1.677,0.375 0.409,0.25 0.721,0.556 0.937,0.918 l 0.393,-1.105 h 1.55 v 6.821 c 0,1.061 -0.286,1.846 -0.856,2.352 -0.57,0.506 -1.573,0.759 -3.007,0.759 -0.601,0 -1.214,-0.057 -1.838,-0.169 C 72.506,7.917 71.97,7.786 71.523,7.636 l 0.578,-1.424 c 0.524,0.15 1.014,0.256 1.469,0.319 0.455,0.062 0.844,0.093 1.168,0.093 0.308,0 0.578,-0.018 0.81,-0.056 z m 1.04,-5.116 c 0,-0.187 -0.034,-0.39 -0.104,-0.609 -0.069,-0.218 -0.177,-0.418 -0.323,-0.599 -0.147,-0.182 -0.344,-0.335 -0.59,-0.46 -0.247,-0.125 -0.548,-0.187 -0.902,-0.187 -0.494,0 -0.841,0.137 -1.041,0.412 -0.201,0.275 -0.301,0.694 -0.301,1.256 0,0.6 0.151,1.031 0.451,1.293 0.301,0.262 0.798,0.393 1.492,0.393 h 1.318 z m 13.76,0.919 C 90.17,2.695 89.954,2.98 89.7,3.223 89.446,3.467 89.164,3.682 88.856,3.87 c -0.309,0.187 -0.59,0.365 -0.844,0.534 -0.255,0.168 -0.471,0.337 -0.648,0.506 -0.177,0.168 -0.266,0.359 -0.266,0.571 0,0.338 0.112,0.609 0.335,0.815 0.224,0.207 0.467,0.416 0.729,0.628 0.262,0.213 0.505,0.472 0.729,0.778 0.223,0.306 0.335,0.728 0.335,1.265 0,0.862 -0.293,1.561 -0.879,2.099 -0.586,0.537 -1.457,0.806 -2.614,0.806 -0.524,0 -1.014,-0.063 -1.468,-0.188 -0.455,-0.125 -0.852,-0.328 -1.191,-0.609 -0.34,-0.281 -0.61,-0.64 -0.81,-1.077 C 82.063,9.56 81.963,9.035 81.963,8.423 V -1.733 h 2.267 v 10.1 c 0,0.437 0.046,0.784 0.139,1.04 0.092,0.256 0.216,0.45 0.37,0.581 0.154,0.131 0.324,0.216 0.509,0.253 0.185,0.038 0.362,0.056 0.532,0.056 0.509,0 0.871,-0.137 1.087,-0.412 0.215,-0.275 0.324,-0.612 0.324,-1.012 0,-0.4 -0.12,-0.728 -0.359,-0.984 C 86.593,7.633 86.335,7.393 86.057,7.168 85.78,6.943 85.521,6.702 85.282,6.446 85.043,6.19 84.924,5.862 84.924,5.463 c 0,-0.4 0.084,-0.741 0.254,-1.022 0.17,-0.281 0.378,-0.528 0.625,-0.74 0.246,-0.213 0.516,-0.406 0.809,-0.581 0.293,-0.175 0.563,-0.356 0.81,-0.543 0.246,-0.188 0.454,-0.394 0.624,-0.619 0.17,-0.225 0.255,-0.5 0.255,-0.824 0,-0.5 -0.104,-0.862 -0.313,-1.087 -0.208,-0.225 -0.512,-0.337 -0.913,-0.337 -0.293,0 -0.555,0.021 -0.786,0.065 -0.232,0.044 -0.479,0.109 -0.741,0.197 l -0.624,-1.368 c 0.308,-0.138 0.674,-0.25 1.099,-0.337 0.423,-0.088 0.836,-0.132 1.237,-0.132 0.463,0 0.898,0.054 1.307,0.16 0.408,0.106 0.763,0.281 1.064,0.524 0.3,0.244 0.539,0.563 0.717,0.956 0.177,0.394 0.266,0.871 0.266,1.434 0,0.449 -0.089,0.837 -0.266,1.162 z m 10.507,0.149 v 1.069 c 0,0.737 -0.066,1.393 -0.196,1.967 -0.132,0.575 -0.347,1.059 -0.648,1.453 -0.301,0.393 -0.698,0.69 -1.191,0.89 -0.494,0.199 -1.103,0.3 -1.827,0.3 -1.434,0 -2.483,-0.416 -3.146,-1.247 -0.663,-0.831 -0.994,-2.164 -0.994,-4.001 0,-1.011 0.127,-1.836 0.381,-2.473 0.255,-0.637 0.59,-1.134 1.006,-1.49 0.417,-0.356 0.894,-0.597 1.434,-0.721 0.54,-0.125 1.095,-0.188 1.666,-0.188 0.647,0 1.264,0.075 1.85,0.225 0.586,0.15 1.056,0.306 1.411,0.469 L 99.93,0.141 c -0.879,-0.35 -1.696,-0.525 -2.452,-0.525 -0.323,0 -0.624,0.022 -0.902,0.065 -0.277,0.044 -0.52,0.163 -0.728,0.356 -0.208,0.194 -0.378,0.484 -0.509,0.872 -0.131,0.387 -0.205,0.924 -0.22,1.611 z m -3.099,4.067 c 0.216,-0.088 0.393,-0.238 0.532,-0.45 0.139,-0.212 0.243,-0.509 0.312,-0.89 0.07,-0.381 0.112,-0.859 0.127,-1.434 h -3.585 c 0.031,0.638 0.096,1.15 0.197,1.537 0.1,0.387 0.227,0.681 0.382,0.881 0.154,0.2 0.335,0.331 0.543,0.393 0.208,0.063 0.436,0.094 0.682,0.094 0.324,0 0.594,-0.044 0.81,-0.131 z"
             style="fill:none;stroke:#ffffff;stroke-width:0.171;stroke-linecap:butt;stroke-linejoin:miter;stroke-miterlimit:5.104;stroke-dasharray:none;stroke-opacity:1"
             id="path773" />
        </g>
        <path
           d="M 401.071,543.562 H 505.207 V 647.698 H 401.071 Z"
           style="fill:#ffffff;fill-opacity:1;fill-rule:nonzero;stroke:none"
           id="path775" />
        <g
           id="g777"
           transform="translate(491.4404,557.1265)">
          <path
             d="m 0,0 h -15.736 c 1.156,0.283 2.395,0.805 3.636,1.467 0,0 0.625,0.625 1.822,0.833 1.197,0.208 2.237,1.145 2.341,1.926 0.105,0.78 -0.988,2.55 -1.665,3.278 -0.676,0.729 -5.048,4.279 -5.724,5.933 -0.677,1.654 -6.09,9.576 -5.673,14.104 0.416,4.527 1.457,6.141 1.457,6.141 0,0 4.862,-0.559 6.527,1.927 0.317,0.472 0.501,1.433 0.59,2.68 h 0.316 v 0 c 0.411,10e-4 1.342,0.334 1.342,0.746 l -0.01,0.052 0.045,-0.01 c 0,0 0.22,0.074 0.149,1.897 -0.071,1.823 -0.598,4.109 -0.598,4.109 l -0.039,0.01 c -0.015,0.399 -0.562,0.719 -0.964,0.72 v 0 h -0.413 c -0.338,4.393 -0.939,8.562 -1.148,8.875 -0.412,0.619 -1.491,2.624 -2.879,2.496 0.019,0.159 0.038,0.313 0.056,0.478 0.297,2.637 -1.09,3.27 -1.783,2.477 -0.678,-0.774 -0.693,-2.108 -0.693,-2.169 -0.322,-0.199 -0.706,-0.465 -0.706,-0.465 0,0 -0.612,1.222 -1.978,2.263 -0.68,0.518 -1.384,0.656 -2.276,1.041 -0.652,0.281 -0.534,1.288 -0.534,1.288 0,0 3.635,2.961 2.594,7.477 0,0 1.808,1.592 1.808,-2.432 0,-0.897 -0.276,-2.242 0,-3.546 0.414,-1.961 4.133,-1.877 4.133,-1.877 0,0 -1.196,0.566 -1.42,3.704 -0.306,4.28 -1.495,7.14 -4.929,5.353 l -0.75,0.89 c 0,0 -3.049,1.724 -5.547,1.62 -2.498,-0.104 -4.892,-0.856 -4.945,-5.893 0,0 0.424,-1.095 -0.567,-1.761 -0.727,-0.488 -0.359,-1.001 0.047,-1.176 0.29,-0.124 -0.178,-0.746 -0.178,-0.746 0,0 -0.033,-0.379 0.26,-0.48 l 0.197,-0.078 c -0.224,-0.034 -0.4,-0.397 -0.141,-0.67 0.252,-0.265 0.145,-0.489 0.145,-0.854 0,-0.364 0.578,-1.116 2.181,-0.927 1.524,0.179 2.612,0.253 1.987,-0.748 -0.058,-0.093 -0.772,-0.491 -0.837,-0.595 -0.628,-1.008 -1.509,-1.828 -1.792,-3.715 -0.133,-0.885 -0.266,-4.008 -0.363,-7.396 l -5.647,-0.757 0.554,-12.553 5.735,0.704 c 0.442,-0.985 1.082,-2 1.959,-2.335 0,0 0.052,-2.331 -1.406,-5.921 -1.457,-3.591 -2.081,-5.933 -1.873,-7.703 0.208,-1.769 0.156,-2.498 -0.156,-2.966 -0.313,-0.469 -1.614,-2.591 -2.29,-5.881 -0.677,-3.29 -1.301,-6.453 -1.353,-6.87 -0.05,-0.397 -1.759,-1.398 -3.318,-1.217 l 0.535,0.791 0.274,0.407 c 0,0 2.073,2.688 0.589,3.416 -1.485,0.729 -2.739,0.617 -3.707,1.223 -0.968,0.607 -5.166,7.159 -9.208,7.717 0,0 3.815,6.375 3.313,9.882 -0.347,2.42 -0.833,4.259 -1.129,5.909 1.199,-0.987 3.202,-1.786 4.035,-1.326 1.195,0.66 5.462,9.168 5.071,11.004 -0.392,1.836 -0.809,1.084 -0.809,1.084 l -0.237,0.645 1.139,-0.937 c 0,0 0.563,8.689 -7.015,6.024 0,0 -1.533,0.864 -1.508,1.564 0.024,0.701 -2.128,0.581 -1.644,-0.477 0.484,-1.059 0.928,-1.4 0.928,-1.4 l -0.62,0.077 c -0.178,0.482 -0.372,0.946 -0.547,1.222 -0.151,0.239 -0.837,0.817 -1.197,0.755 -0.955,-0.167 -0.605,0.084 -0.605,0.084 l 0.06,1.651 c 0,0 2.839,1.698 2.58,5.556 -0.243,3.627 -2.96,5.384 -7.442,4.068 -4.274,-1.255 -3.676,-5.32 -3.138,-6.023 0.23,-0.3 0.441,-0.772 0.239,-1.183 -0.359,-0.729 -0.668,-1.016 -0.556,-1.267 0.108,-0.24 0.27,-0.223 0.422,-0.269 0.378,-0.116 0.002,-0.64 0.179,-0.763 0.184,-0.127 0.344,-0.059 0.344,-0.059 l -0.045,-0.075 c 0,0 -0.246,-0.336 0.179,-0.523 0.372,-0.164 0.026,-1.201 0.754,-1.226 0.728,-0.026 2.011,0.147 2.011,0.147 l -0.101,-0.631 c 0,0 -1.195,0.08 -2.812,-1.49 l -0.028,-0.035 c -0.481,-0.318 -0.888,-0.698 -1.045,-1.162 -0.523,-1.544 -0.903,-3.498 -1.126,-3.918 -0.224,-0.42 -1.251,-3 -2.214,-3.736 -0.963,-0.736 -3.034,-3.371 -3.85,-4.384 -0.817,-1.013 -2.205,-2.006 -2.829,-1.984 -0.625,0.022 -1.851,-0.809 -1.927,-1.495 -0.076,-0.686 0.394,-0.627 0.587,-1.062 0.194,-0.435 1.21,-1.159 1.754,-0.49 0.544,0.67 0.976,1.123 1.288,1.113 0.313,-0.011 0.628,0.082 1.01,0.589 0.383,0.508 4.066,3.087 4.983,3.992 0.494,0.489 1.372,1.63 2.167,2.771 -0.053,-1.67 0.3,-6.453 0.321,-7.285 0.021,-0.874 -1.381,-3.742 0.07,-3.948 1.451,-0.207 1.137,-0.26 1.137,-0.26 0,0 -1.733,-4.886 -1.665,-5.93 0.067,-1.044 0.225,-6.963 0.805,-9.755 0.579,-2.791 1.668,-7.4 -0.906,-8.04 C -64.16,2.667 -66.248,2.532 -66.531,1.865 -66.717,1.43 -66.322,0.539 -64.909,0 H -76.603 V -2.275 H 0 Z m -48.66,48.053 c 0,0 -1.711,1.333 -1.241,1.721 0.469,0.389 0.868,-1.238 1.25,-1.461 0.383,-0.223 -0.009,-0.26 -0.009,-0.26 m -1.354,-9.087 c 0.06,3.524 0.17,7.551 0.17,7.551 0,0 -0.041,0.141 -0.108,0.362 l 0.512,-0.122 c 0,0 0.861,-0.124 0.708,-0.785 -0.086,-0.367 -0.742,-3.8 -1.282,-7.006 m 32.455,19.786 c 0.037,-0.508 0.046,-1.028 0.044,-1.485 -0.342,0.118 -0.582,0.323 -0.754,0.511 0.114,0.222 0.215,0.463 0.215,0.677 0,0.534 0.396,1.684 0.495,0.297 M -44.496,3.583 c -0.255,-1.333 -1.201,-3.082 -1.201,-3.082 0,0 -0.079,-0.211 -0.137,-0.501 h -9.937 c -0.034,0.843 -0.802,2.361 -0.788,4.12 0.016,1.926 1.411,6.096 0.252,8.688 l 0.348,1.029 c 0,0 6.137,-4.692 9.09,-6.618 2.953,-1.926 2.628,-2.302 2.373,-3.636 m 2.46,-3.181 C -41.755,0.262 -41.469,0.129 -41.17,0 h -1.138 z M -18.774,0 h -13.039 c 0.133,0.732 0.279,1.632 0.353,2.404 0.157,1.613 4.018,13.579 5.059,15.233 1.041,1.653 0.625,0.988 0.625,0.988 0,0 4.933,-9.444 7.535,-10.912 2.602,-1.469 2.186,-2.134 2.186,-2.134 0,0 1.717,-0.677 0.677,-1.77 C -16.419,2.716 -16.784,2.196 -17.564,1.936 -18.302,1.69 -20.066,0.524 -18.774,0"
             style="fill:#231f20;fill-opacity:1;fill-rule:nonzero;stroke:none"
             id="path779" />
        </g>
      </g>
    </g>
  </g>
</svg>
