<?xml version="1.0" encoding="UTF-8" standalone="no"?>
<!-- Created with Inkscape (http://www.inkscape.org/) -->
<svg
   xmlns:svg="http://www.w3.org/2000/svg"
   xmlns="http://www.w3.org/2000/svg"
   version="1.0"
   width="960.00006"
   height="960"
   id="svg3482">
  <defs
     id="defs3484" />
  <g
     transform="translate(-582.5339,438.6941)"
     id="layer1">
    <path
       d="M 1062.5339,-438.6941 C 797.4375,-438.6941 582.53386,-223.7896 582.53386,41.3059 C 582.53386,306.4014 797.4375,521.3059 1062.5339,521.3059 C 1327.6302,521.3059 1542.5339,306.4014 1542.5339,41.3059 C 1542.5339,-223.7896 1327.6302,-438.6941 1062.5339,-438.6941 z "
       style="fill:#ee1c23;fill-rule:nonzero;stroke:none"
       id="path3497" />
    <path
       d="M 1062.5339,-314.61539 C 1252.9999,-314.61539 1408.5294,-164.98413 1418.0021,23.121354 L 707.0795,23.121354 C 716.53831,-164.98413 872.0678,-314.61539 1062.5339,-314.61539 z "
       style="fill:white;fill-rule:nonzero;stroke:none"
       id="path3495" />
    <path
       d="M 1062.5339,397.22719 C 872.0678,397.22719 716.53831,247.60978 707.0795,59.490446 L 1418.0021,59.490446 C 1408.5294,247.60978 1252.9999,397.22719 1062.5339,397.22719"
       style="fill:white;fill-rule:nonzero;stroke:none"
       id="path186" />
    <path
       d="M 1252.1955,256.19655 C 1250.8086,243.71804 1246.315,232.18131 1239.5329,222.34808 L 1248.8392,208.72006 L 1203.6116,177.84927 L 1194.028,191.89278 C 1188.9796,190.81251 1183.7509,190.21697 1178.3974,190.21697 C 1174.6804,190.21697 1171.0328,190.49397 1167.4684,191.0341 L 1165.1384,172.68336 L 1171.6431,169.20711 C 1182.891,170.71671 1185.8867,170.71671 1185.8867,170.71671 C 1190.3942,149.70685 1182.1421,124.95758 1182.1421,124.95758 C 1182.1421,124.95758 1149.7852,124.2651 1133.6552,160.84194 L 1084.4472,139.99827 C 1084.5027,139.79052 1084.5859,139.56893 1084.6137,139.38888 C 1085.7509,134.33377 1089.1212,129.83265 1089.1212,129.83265 C 1096.4302,128.69698 1103.1846,132.82416 1109.3702,128.32304 C 1108.2468,123.82191 1113.8777,120.8304 1117.8166,121.95222 C 1120.632,119.14074 1115.0011,114.63962 1117.8166,111.82815 C 1119.4948,110.69248 1121.3255,111.26031 1121.381,110.69248 C 1121.9357,105.06953 1121.1868,100.01442 1117.248,95.513298 C 1117.248,95.513298 1089.6898,62.315768 1067.1801,107.88101 C 1067.1801,107.88101 1026.0994,103.37988 1023.2978,109.57066 C 1023.2978,109.57066 1026.7513,116.89711 1021.0371,116.32927 C 1009.7892,115.1936 983.34059,122.52005 983.34059,122.52005 L 983.34059,132.07628 C 983.34059,132.07628 1010.9126,127.02117 1028.3601,130.38663 L 1027.7915,132.64412 C 1027.7915,132.64412 996.15575,151.65964 987.84808,159.08304 C 975.0884,170.48127 969.34654,185.20341 967.61289,190.36932 C 964.68648,189.78764 961.67686,189.46909 958.59789,189.46909 C 923.4394,189.46909 893.32932,223.22061 879.07175,268.23186 C 878.76663,269.18749 892.6636,266.48681 892.7052,267.48398 C 892.81616,269.76917 893.05193,272.01281 893.39866,274.22875 L 880.56963,274.22875 L 880.56963,284.7406 L 895.9506,284.7406 C 904.41083,309.96076 928.22429,328.13145 956.2956,328.13145 C 983.81214,328.13145 1007.2373,310.68094 1016.1274,286.23636 L 1085.3765,286.23636 C 1085.3765,286.23636 1094.6272,286.7488 1102.9349,276.22309 C 1102.1721,283.57724 1101.1735,292.69028 1100.3691,298.24398 L 1121.4503,292.95343 C 1131.8939,313.81095 1153.4744,328.13145 1178.3974,328.13145 C 1213.542,328.13145 1242.0432,299.64279 1242.0432,264.47862 C 1242.0432,261.68099 1241.8629,258.92492 1241.5162,256.2104 L 1252.1955,256.19655 z M 1060.4257,184.40014 C 1061.7572,176.00727 1069.302,165.56466 1072.492,161.45132 L 1099.5647,173.79133 C 1080.4945,178.07086 1067.402,182.32269 1060.3703,184.85717 C 1060.398,184.70483 1060.398,184.55248 1060.4257,184.40014 z M 975.24096,223.15136 C 984.51947,227.55554 989.9146,232.41675 997.41785,244.41052 L 969.69327,244.54902 L 975.24096,223.15136 z M 907.7117,268.97974 C 907.57301,267.49783 907.4898,266.00207 907.4898,264.47862 C 907.4898,262.71971 910.40233,263.95233 910.58263,262.23498 C 913.19005,237.73501 931.20617,219.85515 954.22908,219.09342 L 950.04058,244.54902 L 945.08926,244.54902 C 935.42242,244.54902 927.5863,253.81441 927.5863,265.2265 C 927.5863,266.51451 927.69726,267.76098 927.89143,268.97974 L 907.7117,268.97974 z M 956.2956,313.28466 C 937.15607,313.28466 920.61008,302.27422 912.60754,286.23636 L 999.98366,286.23636 C 991.98111,302.27422 975.42126,313.28466 956.2956,313.28466 z M 1109.398,237.01483 L 1100.4939,237.20872 C 1102.7269,226.00438 1110.6185,202.16919 1138.2044,185.8128 L 1139.7716,201.03352 C 1126.1243,209.37099 1115.3895,221.98799 1109.398,237.01483 z M 1178.3974,313.28466 C 1151.4356,313.28466 1129.5916,291.42997 1129.5916,264.47862 C 1129.5916,248.26072 1137.5109,233.89866 1149.6881,225.02106 L 1179.1463,277.23411 L 1191.1432,272.73299 L 1170.8941,217.9716 L 1170.6722,216.2958 C 1173.1825,215.89416 1175.7622,215.68642 1178.3974,215.68642 C 1205.3453,215.68642 1227.1893,237.52726 1227.1893,264.47862 C 1227.1893,291.42997 1205.3453,313.28466 1178.3974,313.28466"
       style="fill:black;fill-rule:nonzero;stroke:none"
       id="path182" />
    <g
       id="g3568">
      <path
         d="M 1213.0982,-70.22506 L 1213.0982,-96.788624 C 1213.0982,-96.788624 1211.3922,-112.88188 1204.3328,-118.61562 C 1199.1041,-122.8813 1192.9184,-122.70126 1187.5372,-123.83692 L 1187.5372,-204.17855 C 1187.5372,-237.45918 1160.4645,-264.53518 1127.1783,-264.53518 L 997.91714,-264.57672 C 964.64487,-264.57672 937.57214,-237.50072 937.57214,-204.2201 L 937.57214,-123.87847 C 932.19089,-122.75665 926.00521,-122.92285 920.77651,-118.65717 C 913.71708,-112.92343 912.01116,-96.830172 912.01116,-96.830172 L 912.01116,-70.266609 L 935.00634,-70.266609 L 935.00634,-56.943278 L 933.39751,-56.943278 C 930.67914,-56.943278 928.4878,-54.755038 928.4878,-52.040514 C 928.4878,-49.325989 930.67914,-47.1239 933.39751,-47.1239 L 935.00634,-47.1239 L 935.00634,-21.876049 C 935.00634,-13.663227 941.66357,-7.0015615 949.87415,-7.0015615 C 958.0986,-7.0015615 964.75583,-13.663227 964.75583,-21.876049 L 964.75583,-47.1239 L 1160.3396,-47.082351 L 1160.3396,-21.8345 C 1160.3396,-13.621678 1167.0107,-6.9600126 1175.2213,-6.9600126 C 1183.4458,-6.9600126 1190.103,-13.621678 1190.103,-21.8345 L 1190.103,-47.082351 L 1191.698,-47.082351 C 1194.4163,-47.082351 1196.6077,-49.28444 1196.6077,-51.998965 C 1196.6077,-54.69964 1194.4163,-56.901729 1191.698,-56.901729 L 1190.103,-56.901729 L 1190.103,-70.22506 L 1213.0982,-70.22506 z M 1007.7366,-56.943278 L 964.75583,-56.943278 L 964.75583,-70.266609 L 1000.0253,-70.266609 L 1007.7366,-61.984538 L 1007.7366,-56.943278 z M 1007.7366,-80.224483 C 1004.1167,-84.587112 999.22085,-90.279304 993.78411,-95.985346 C 997.7091,-97.591901 1001.3151,-99.974035 1004.3941,-103.0625 C 1005.6423,-104.29512 1006.7241,-105.63853 1007.7366,-107.02349 L 1007.7366,-80.224483 z M 1007.7366,-145.02684 C 1006.7241,-146.4118 1005.6423,-147.75521 1004.3941,-148.98783 C 998.26387,-155.12321 990.10877,-158.50251 981.4405,-158.50251 C 976.25341,-158.50251 971.37145,-157.25605 967.01651,-155.08166 L 967.01651,-204.2201 C 967.01651,-212.47447 970.23417,-220.2441 976.07311,-226.07479 C 981.91206,-231.90548 989.66495,-235.11859 997.91714,-235.11859 L 1127.1783,-235.07704 C 1135.4305,-235.07704 1143.1973,-231.86393 1149.0362,-226.03324 C 1154.8613,-220.1887 1158.0789,-212.43292 1158.0789,-204.17855 L 1158.0789,-155.04011 C 1153.724,-157.2145 1148.842,-158.46096 1143.6688,-158.46096 C 1134.9867,-158.46096 1126.8316,-155.08166 1120.7014,-148.94628 C 1119.467,-147.71366 1118.3714,-146.37025 1117.3589,-144.98529 L 1117.3589,-166.3137 L 1068.0815,-191.61695 L 1068.0815,-199.04034 L 1057.0416,-199.04034 L 1057.0416,-191.67234 L 1007.7366,-166.35525 L 1007.7366,-145.02684 z M 1120.7014,-103.02095 C 1123.7942,-99.932487 1127.3864,-97.550353 1131.3113,-95.929947 C 1125.8885,-90.223906 1120.9926,-84.545563 1117.3589,-80.182934 L 1117.3589,-106.98194 C 1118.3714,-105.59698 1119.467,-104.25357 1120.7014,-103.02095 z M 1160.3396,-56.901729 L 1117.3589,-56.943278 L 1117.3589,-61.942989 L 1125.0702,-70.22506 L 1160.3396,-70.22506 L 1160.3396,-56.901729 z M 1024.9621,-74.213749 L 1099.9114,-74.213749 L 1099.9114,-56.680135 L 1024.9621,-56.680135 L 1024.9621,-74.213749 z "
         style="fill:black;fill-rule:nonzero;stroke:none"
         id="path3558" />
      <path
         d="M 964.42296,-109.01783 C 959.88773,-113.56051 957.3774,-119.59894 957.3774,-126.02516 C 957.3774,-132.45139 959.88773,-138.48982 964.42296,-143.04634 C 968.97207,-147.58902 975.00518,-150.08195 981.4405,-150.08195 C 987.86195,-150.08195 993.90894,-147.58902 998.44417,-143.04634 C 1002.9933,-138.48982 1005.5036,-132.45139 1005.5036,-126.02516 C 1005.5036,-112.75723 994.69948,-101.96838 981.4405,-101.96838 C 975.00518,-101.96838 968.97207,-104.47516 964.42296,-109.01783 z "
         style="fill:white;fill-rule:nonzero;stroke:none"
         id="path3556" />
      <path
         d="M 1160.6725,-108.97629 C 1156.1373,-104.43361 1150.0903,-101.92683 1143.6688,-101.92683 C 1130.396,-101.92683 1119.6057,-112.71568 1119.6057,-125.98361 C 1119.6057,-132.40984 1122.1022,-138.44827 1126.6513,-142.99094 C 1131.2004,-147.54747 1137.2335,-150.0404 1143.6688,-150.0404 C 1150.0903,-150.0404 1156.1373,-147.54747 1160.6725,-142.99094 C 1165.2216,-138.44827 1167.7181,-132.40984 1167.7181,-125.98361 C 1167.7181,-119.55739 1165.2216,-113.51896 1160.6725,-108.97629 z "
         style="fill:white;fill-rule:nonzero;stroke:none"
         id="path3544" />
    </g>
  </g>
</svg>
