<?xml version="1.0" encoding="UTF-8" standalone="no"?>
<!-- Created with Inkscape (http://www.inkscape.org/) -->

<svg
   version="1.0"
   width="960"
   height="960"
   id="svg2376"
   sodipodi:docname="AT_FKV_1_9.svg"
   inkscape:version="1.3.2 (091e20e, 2023-11-25, custom)"
   xmlns:inkscape="http://www.inkscape.org/namespaces/inkscape"
   xmlns:sodipodi="http://sodipodi.sourceforge.net/DTD/sodipodi-0.dtd"
   xmlns="http://www.w3.org/2000/svg"
   xmlns:svg="http://www.w3.org/2000/svg">
  <sodipodi:namedview
     id="namedview1"
     pagecolor="#ffffff"
     bordercolor="#000000"
     borderopacity="0.25"
     inkscape:showpageshadow="2"
     inkscape:pageopacity="0.0"
     inkscape:pagecheckerboard="0"
     inkscape:deskcolor="#d1d1d1"
     inkscape:zoom="0.29941553"
     inkscape:cx="-499.3061"
     inkscape:cy="185.36113"
     inkscape:window-width="1920"
     inkscape:window-height="1009"
     inkscape:window-x="-8"
     inkscape:window-y="-8"
     inkscape:window-maximized="1"
     inkscape:current-layer="svg2376"
     showgrid="false">
    <sodipodi:guide
       position="0,960"
       orientation="0,960"
       id="guide1"
       inkscape:locked="false" />
    <sodipodi:guide
       position="960,960"
       orientation="960,0"
       id="guide2"
       inkscape:locked="false" />
    <sodipodi:guide
       position="960,0"
       orientation="0,-960"
       id="guide3"
       inkscape:locked="false" />
    <sodipodi:guide
       position="0,0"
       orientation="-960,0"
       id="guide4"
       inkscape:locked="false" />
  </sodipodi:namedview>
  <defs
     id="defs2378" />
  <g
     transform="translate(-315.342,392.9798)"
     id="layer1">
    <path
       d="M 315.342,87.02018 C 315.342,-178.06148 530.2465,-392.97982 795.342,-392.97982 C 1060.4375,-392.97982 1275.342,-178.06148 1275.342,87.02018 C 1275.342,352.11568 1060.4375,567.02018 795.342,567.02018 C 530.2465,567.02018 315.342,352.11568 315.342,87.02018 z "
       style="fill:#ee1c23;fill-rule:nonzero;stroke:none"
       id="path2387" />
    <path
       d="M 794.42071,442.94147 C 990.47949,442.94147 1149.4207,284.00026 1149.4207,87.94147 C 1149.4207,-108.11732 990.47949,-267.05853 794.42071,-267.05853 C 598.36192,-267.05853 439.42071,-108.11732 439.42071,87.94147 C 439.42071,284.00026 598.36192,442.94147 794.42071,442.94147"
       style="fill:white;fill-rule:nonzero;stroke:none"
       id="path78" />
  </g>
  <path
     d="m 177.46334,437.79684 v -81.08818 h 11.37688 v 81.08818 z m 5.5769,-34.13065 V 392.847 h 39.31718 v 10.81919 z m 0,-36.13834 v -10.81919 h 45.45177 v 10.81919 z m 85.10356,71.10553 q -8.58843,0 -15.00187,-3.68076 -6.41344,-3.73652 -9.98266,-10.48458 -3.51345,-6.74805 -3.51345,-15.72687 v -22.97684 q 0,-9.03459 3.51345,-15.72687 3.56922,-6.74805 9.98266,-10.42881 6.41344,-3.73653 15.00187,-3.73653 8.58843,0 15.00187,3.73653 6.41344,3.68076 9.92689,10.42881 3.56922,6.69228 3.56922,15.72687 v 22.97684 q 0,8.97882 -3.56922,15.72687 -3.51345,6.74806 -9.92689,10.48458 -6.41344,3.68076 -15.00187,3.68076 z m 0,-11.20958 q 7.64036,0 12.21342,-5.01921 4.62883,-5.01921 4.62883,-13.27303 v -23.75761 q 0,-8.30959 -4.62883,-13.27304 -4.57306,-5.01921 -12.21342,-5.01921 -7.58459,0 -12.21342,5.01921 -4.62883,4.96345 -4.62883,13.27304 v 23.75761 q 0,8.25382 4.62883,13.27303 4.62883,5.01921 12.21342,5.01921 z m 50.74983,-23.92492 v -10.81919 h 27.66144 q 4.96345,0 7.97497,-3.45768 3.01153,-3.45768 3.01153,-9.14612 v 0 q 0,-5.68845 -3.01153,-9.14613 -3.01152,-3.45768 -7.97497,-3.45768 h -27.66144 v -10.81919 h 27.21529 q 7.08267,0 12.38073,2.95576 5.29805,2.89999 8.19804,8.14228 2.95576,5.24229 2.95576,12.32496 v 0 q 0,7.0269 -2.95576,12.32495 -2.95575,5.24229 -8.25381,8.19805 -5.24229,2.89999 -12.32496,2.89999 z m -4.96345,34.29796 v -81.14395 h 11.37689 v 81.14395 z m 45.61908,0 -18.57109,-36.80756 11.32111,-2.56538 20.74609,39.37294 z m 50.97289,0.83654 q -5.91151,0 -11.1538,-1.11538 -5.18653,-1.11538 -9.75959,-3.34614 -4.51729,-2.23076 -8.47689,-5.57691 v 0 l 7.08267,-8.69997 v 0 q 4.62883,4.01537 10.20573,6.02306 5.57691,2.00768 12.10188,2.00768 8.81151,0 13.66342,-3.29037 4.85191,-3.29037 4.85191,-9.20189 v -0.0558 q 0,-4.62883 -2.45384,-7.08267 -2.45384,-2.45384 -6.46921,-3.62499 -3.9596,-1.22691 -8.69997,-2.00768 -4.57306,-0.78077 -9.25766,-1.84038 -4.62883,-1.05961 -8.53267,-3.29037 -3.90383,-2.28653 -6.3019,-6.52498 -2.3423,-4.23845 -2.3423,-11.32112 v -0.0558 q 0,-11.32111 7.52882,-17.51147 7.52882,-6.24614 21.24801,-6.24614 6.52498,0 12.77111,2.11923 6.24613,2.06345 12.15765,6.35767 v 0 l -6.46921,9.03458 v 0 q -4.62883,-3.45768 -9.25766,-5.13075 -4.57306,-1.67307 -9.20189,-1.67307 -8.30959,0 -12.93842,3.34614 -4.57306,3.29037 -4.57306,9.3692 v 0.0558 q 0,4.57306 2.67691,6.97113 2.67692,2.39807 6.97113,3.56922 4.34999,1.11538 9.31343,2.11922 4.46153,0.89231 8.92305,2.17499 4.46152,1.22692 8.08651,3.62499 3.68076,2.3423 5.85575,6.46921 2.23076,4.12691 2.23076,10.76343 v 0.11153 q 0,11.20958 -7.80766,17.34418 -7.80767,6.13459 -21.97301,6.13459 z m 57.72097,-0.83654 V 363.34517 H 479.62 v 74.45167 z m -22.92108,-70.26899 v -10.81919 h 57.21904 v 10.81919 z m 90.51316,71.10553 q -5.91152,0 -11.1538,-1.11538 -5.18653,-1.11538 -9.75959,-3.34614 -4.51729,-2.23076 -8.47689,-5.57691 v 0 l 7.08267,-8.69997 v 0 q 4.62883,4.01537 10.20573,6.02306 5.57691,2.00768 12.10188,2.00768 8.81151,0 13.66342,-3.29037 4.85191,-3.29037 4.85191,-9.20189 v -0.0558 q 0,-4.62883 -2.45384,-7.08267 -2.45384,-2.45384 -6.46921,-3.62499 -3.9596,-1.22691 -8.69997,-2.00768 -4.57306,-0.78077 -9.25766,-1.84038 -4.62883,-1.05961 -8.53267,-3.29037 -3.90383,-2.28653 -6.3019,-6.52498 -2.3423,-4.23845 -2.3423,-11.32112 v -0.0558 q 0,-11.32111 7.52882,-17.51147 7.52882,-6.24614 21.24801,-6.24614 6.52498,0 12.77111,2.11923 6.24613,2.06345 12.15765,6.35767 v 0 l -6.46921,9.03458 v 0 q -4.62883,-3.45768 -9.25766,-5.13075 -4.57306,-1.67307 -9.20189,-1.67307 -8.30959,0 -12.93842,3.34614 -4.57306,3.29037 -4.57306,9.3692 v 0.0558 q 0,4.57306 2.67691,6.97113 2.67692,2.39807 6.97113,3.56922 4.34999,1.11538 9.31343,2.11922 4.46153,0.89231 8.92305,2.17499 4.46152,1.22692 8.08651,3.62499 3.68076,2.3423 5.85575,6.46921 2.23076,4.12691 2.23076,10.76343 v 0.11153 q 0,11.20958 -7.80766,17.34418 -7.80767,6.13459 -21.97301,6.13459 z m 57.72097,-0.83654 v -74.45167 h 11.37688 v 74.45167 z m -22.92108,-70.26899 v -10.81919 h 57.21904 v 10.81919 z m 73.33628,35.97103 v -10.81919 h 27.66144 q 4.96345,0 7.97498,-3.45768 3.01153,-3.45768 3.01153,-9.14612 v 0 q 0,-5.68845 -3.01153,-9.14613 -3.01153,-3.45768 -7.97498,-3.45768 h -27.66144 v -10.81919 h 27.21529 q 7.08267,0 12.38073,2.95576 5.29806,2.89999 8.19805,8.14228 2.95576,5.24229 2.95576,12.32496 v 0 q 0,7.0269 -2.95576,12.32495 -2.95576,5.24229 -8.25382,8.19805 -5.24229,2.89999 -12.32496,2.89999 z m -4.96344,34.29796 v -81.14395 h 11.37688 v 81.14395 z m 45.61907,0 -18.57109,-36.80756 11.32112,-2.56538 20.74608,39.37294 z m 18.2365,0 29.8922,-81.08818 h 9.70382 l 29.8922,81.08818 h -12.26919 l -22.47492,-65.41708 -22.47492,65.41708 z m 13.77495,-17.79032 v -10.81919 h 42.66332 v 10.81919 z m 87.892,18.62686 q -5.91151,0 -11.1538,-1.11538 -5.18652,-1.11538 -9.75959,-3.34614 -4.51729,-2.23076 -8.47689,-5.57691 v 0 l 7.08267,-8.69997 v 0 q 4.62883,4.01537 10.20573,6.02306 5.57691,2.00768 12.10188,2.00768 8.81151,0 13.66342,-3.29037 4.85191,-3.29037 4.85191,-9.20189 v -0.0558 q 0,-4.62883 -2.45384,-7.08267 -2.45384,-2.45384 -6.46921,-3.62499 -3.9596,-1.22691 -8.69997,-2.00768 -4.57306,-0.78077 -9.25766,-1.84038 -4.62883,-1.05961 -8.53266,-3.29037 -3.90384,-2.28653 -6.30191,-6.52498 -2.3423,-4.23845 -2.3423,-11.32112 v -0.0558 q 0,-11.32111 7.52882,-17.51147 7.52883,-6.24614 21.24801,-6.24614 6.52498,0 12.77111,2.11923 6.24613,2.06345 12.15765,6.35767 v 0 l -6.46921,9.03458 v 0 q -4.62883,-3.45768 -9.25766,-5.13075 -4.57306,-1.67307 -9.20189,-1.67307 -8.30959,0 -12.93842,3.34614 -4.57306,3.29037 -4.57306,9.3692 v 0.0558 q 0,4.57306 2.67691,6.97113 2.67692,2.39807 6.97113,3.56922 4.34999,1.11538 9.31343,2.11922 4.46153,0.89231 8.92305,2.17499 4.46152,1.22692 8.08651,3.62499 3.68076,2.3423 5.85575,6.46921 2.23076,4.12691 2.23076,10.76343 v 0.11153 q 0,11.20958 -7.80766,17.34418 -7.80767,6.13459 -21.97301,6.13459 z m 68.094,0 q -5.91152,0 -11.15381,-1.11538 -5.18652,-1.11538 -9.75958,-3.34614 -4.51729,-2.23076 -8.4769,-5.57691 v 0 l 7.08267,-8.69997 v 0 q 4.62883,4.01537 10.20574,6.02306 5.5769,2.00768 12.10188,2.00768 8.81151,0 13.66341,-3.29037 4.85191,-3.29037 4.85191,-9.20189 v -0.0558 q 0,-4.62883 -2.45384,-7.08267 -2.45383,-2.45384 -6.46921,-3.62499 -3.9596,-1.22691 -8.69997,-2.00768 -4.57306,-0.78077 -9.25766,-1.84038 -4.62883,-1.05961 -8.53266,-3.29037 -3.90383,-2.28653 -6.3019,-6.52498 -2.3423,-4.23845 -2.3423,-11.32112 v -0.0558 q 0,-11.32111 7.52882,-17.51147 7.52882,-6.24614 21.248,-6.24614 6.52498,0 12.77111,2.11923 6.24614,2.06345 12.15765,6.35767 v 0 l -6.4692,9.03458 v 0 q -4.62883,-3.45768 -9.25766,-5.13075 -4.57307,-1.67307 -9.2019,-1.67307 -8.30958,0 -12.93841,3.34614 -4.57307,3.29037 -4.57307,9.3692 v 0.0558 q 0,4.57306 2.67692,6.97113 2.67691,2.39807 6.97113,3.56922 4.34998,1.11538 9.31343,2.11922 4.46152,0.89231 8.92305,2.17499 4.46152,1.22692 8.08651,3.62499 3.68075,2.3423 5.85575,6.46921 2.23076,4.12691 2.23076,10.76343 v 0.11153 q 0,11.20958 -7.80767,17.34418 -7.80766,6.13459 -21.973,6.13459 z m 44.83828,-0.83654 v -81.08818 h 11.37688 v 81.08818 z m 5.52113,0 v -10.81919 h 46.56715 v 10.81919 z m 0,-34.85565 V 392.122 h 40.43256 v 10.81919 z m 0,-35.41334 v -10.81919 h 46.56715 v 10.81919 z"
     id="text1"
     style="font-size:114.215px;font-family:Bahnschrift;-inkscape-font-specification:Bahnschrift;stroke-width:1.20829"
     transform="scale(0.82760958,1.2082992)"
     aria-label="FORSTSTRASSE" />
</svg>
